<?xml version="1.0" standalone="no"?>
<!DOCTYPE svg PUBLIC "-//W3C//DTD SVG 20010904//EN"
 "http://www.w3.org/TR/2001/REC-SVG-20010904/DTD/svg10.dtd">
<svg version="1.0" xmlns="http://www.w3.org/2000/svg"
 width="499.000000pt" height="250.000000pt" viewBox="0 0 499.000000 250.000000"
 preserveAspectRatio="xMidYMid meet">

<g transform="translate(0.000000,250.000000) scale(0.100000,-0.100000)"
fill="#000000" stroke="none">
<path d="M3753 2033 c-35 -8 -63 -20 -63 -26 0 -6 8 -47 17 -90 11 -52 21 -76
29 -73 6 2 39 10 73 17 50 9 61 15 61 31 0 18 -4 19 -37 13 -59 -12 -68 -11
-68 5 0 8 15 18 38 23 27 7 37 14 37 29 0 14 -5 18 -17 15 -65 -18 -75 -18
-71 0 2 12 17 20 46 26 32 6 42 13 42 28 0 22 -4 22 -87 2z"/>
<path d="M4046 2024 c-9 -22 -8 -24 12 -24 37 0 42 -13 27 -70 -20 -73 -19
-77 10 -82 26 -5 27 -5 51 95 6 24 11 28 38 25 25 -2 31 1 31 16 0 16 -14 23
-70 38 -86 22 -91 22 -99 2z"/>
<path d="M3447 1906 c-17 -13 -16 -15 9 -45 15 -18 24 -34 22 -36 -3 -3 -29
-1 -58 5 -45 8 -56 8 -71 -6 -17 -16 -15 -20 38 -85 48 -58 59 -67 72 -57 9 7
18 13 20 15 2 1 -8 18 -23 38 l-28 36 64 -7 c51 -5 66 -3 77 9 11 14 5 26 -41
81 -29 36 -55 65 -58 65 -3 0 -13 -6 -23 -13z"/>
<path d="M4349 1822 c-76 -45 -77 -46 -56 -63 12 -9 27 -15 33 -12 20 7 66
-28 59 -46 -4 -9 3 -22 17 -32 l23 -18 32 91 33 90 -23 19 c-12 10 -26 18 -32
18 -5 -1 -44 -22 -86 -47z m81 -17 c0 -2 -5 -15 -11 -29 -10 -21 -14 -23 -30
-13 -18 11 -18 13 3 29 22 17 38 23 38 13z"/>
<path d="M3743 1592 c-67 -24 -118 -64 -154 -120 -42 -67 -52 -106 -47 -191 7
-121 59 -201 165 -253 90 -44 180 -46 267 -5 56 26 60 26 78 11 10 -10 18 -22
18 -28 0 -21 164 -176 187 -176 29 0 53 26 53 58 0 21 -20 48 -85 112 -47 47
-85 80 -85 76 0 -5 -11 1 -24 13 l-24 23 26 51 c36 73 41 172 12 249 -26 70
-92 141 -158 170 -65 29 -163 34 -229 10z m170 -73 c49 -13 115 -73 138 -124
36 -79 19 -187 -39 -249 -37 -39 -118 -76 -167 -76 -75 1 -167 57 -203 125
-94 179 74 379 271 324z"/>
<path d="M3729 1391 c-25 -25 -29 -37 -29 -83 0 -62 28 -118 59 -118 34 0 41
29 18 73 l-20 39 21 44 c19 39 20 45 6 59 -20 20 -21 20 -55 -14z"/>
<path d="M4578 1574 c-73 -35 -76 -38 -65 -61 7 -16 16 -22 26 -17 38 15 51
16 51 2 0 -23 39 -58 64 -58 28 0 56 29 56 57 0 24 -38 113 -48 113 -4 0 -42
-16 -84 -36z m89 -50 c8 -22 -18 -37 -36 -20 -7 8 -10 19 -7 25 10 16 36 13
43 -5z"/>
<path d="M3178 1583 c-76 -87 -31 -184 77 -171 34 4 64 41 71 90 6 32 2 41
-24 68 -36 36 -98 42 -124 13z m93 -52 c21 -16 22 -22 11 -45 -7 -17 -19 -26
-35 -26 -30 0 -67 27 -67 49 0 42 51 54 91 22z"/>
<path d="M251 1522 c-85 -33 -130 -129 -112 -240 17 -112 85 -163 215 -164
136 0 210 61 223 184 11 108 -44 202 -132 227 -57 16 -143 13 -194 -7z m166
-104 c42 -47 37 -160 -10 -193 -33 -23 -80 -19 -111 10 -23 21 -26 31 -26 91
0 56 4 72 22 91 30 32 96 32 125 1z"/>
<path d="M660 1325 l0 -205 55 0 55 0 0 96 c0 72 3 95 13 92 6 -3 48 -46 91
-96 l79 -92 59 0 58 0 0 205 0 205 -60 0 -59 0 -3 -101 -3 -101 -85 101 -85
101 -57 0 -58 0 0 -205z"/>
<path d="M1160 1325 l0 -205 180 0 180 0 0 50 0 50 -115 0 -115 0 0 30 0 29
98 3 97 3 3 48 3 47 -100 0 -101 0 0 30 0 30 115 0 115 0 0 45 0 45 -180 0
-180 0 0 -205z"/>
<path d="M1570 1480 l0 -50 70 0 70 0 0 -155 0 -156 63 3 62 3 3 153 3 152 64
0 65 0 0 50 0 50 -200 0 -200 0 0 -50z"/>
<path d="M2099 1503 c-19 -49 -139 -377 -139 -380 0 -2 29 -3 64 -3 62 0 64 1
75 30 10 30 11 30 83 30 73 0 74 0 85 -30 11 -29 13 -30 78 -30 49 0 66 3 63
13 -3 6 -36 99 -74 204 l-69 193 -78 0 c-75 0 -78 -1 -88 -27z m131 -230 c0
-2 -20 -3 -45 -3 -31 0 -45 4 -45 13 0 11 19 75 37 127 4 11 51 -112 53 -137z"/>
<path d="M2470 1325 l0 -205 65 0 65 0 0 70 0 70 75 0 c71 0 77 2 111 33 31
28 37 42 41 84 6 61 -15 111 -56 136 -24 14 -55 17 -165 17 l-136 0 0 -205z
m218 103 c7 -7 12 -21 12 -33 0 -31 -19 -45 -62 -45 l-38 0 0 45 0 45 38 0
c21 0 43 -5 50 -12z"/>
<path d="M3146 1249 c-26 -20 -35 -61 -18 -85 10 -15 47 -34 66 -34 51 0 76
95 34 124 -30 21 -50 20 -82 -5z"/>
<path d="M4619 1252 c-47 -39 -16 -122 45 -122 30 0 66 40 66 72 0 29 -41 68
-70 68 -10 0 -28 -8 -41 -18z"/>
<path d="M1283 993 c-3 -10 -12 -33 -20 -52 -7 -19 -10 -37 -7 -40 4 -3 9 0
11 7 3 6 15 12 28 12 13 0 25 -6 28 -12 2 -7 7 -10 11 -6 9 8 -25 108 -37 108
-4 0 -10 -8 -14 -17z m15 -52 c-15 -5 -19 4 -11 24 6 18 7 18 13 -1 4 -10 3
-21 -2 -23z"/>
<path d="M1360 955 c0 -52 1 -55 25 -55 14 0 25 5 25 10 0 6 -7 10 -15 10 -11
0 -15 12 -15 45 0 25 -4 45 -10 45 -5 0 -10 -25 -10 -55z"/>
<path d="M1430 955 c0 -52 1 -55 25 -55 14 0 25 5 25 10 0 6 -7 10 -15 10 -11
0 -15 12 -15 45 0 25 -4 45 -10 45 -5 0 -10 -25 -10 -55z"/>
<path d="M1560 956 c0 -31 5 -56 10 -56 6 0 10 22 10 49 0 28 -4 53 -10 56 -6
4 -10 -15 -10 -49z"/>
<path d="M1617 1004 c-11 -11 -8 -104 2 -104 6 0 11 15 13 33 l3 32 20 -32
c10 -18 23 -33 27 -33 4 0 8 26 8 57 0 56 -15 65 -22 13 -3 -25 -3 -25 -24 8
-11 18 -23 29 -27 26z"/>
<path d="M1727 1003 c-11 -10 -8 -103 3 -103 6 0 10 11 10 25 0 19 5 25 23 26
l22 0 -22 9 c-28 12 -30 30 -3 30 11 0 20 5 20 10 0 11 -43 14 -53 3z"/>
<path d="M1822 994 c-41 -29 -19 -94 32 -94 45 0 68 58 37 89 -25 25 -39 26
-69 5z m58 -23 c15 -30 2 -53 -29 -49 -29 3 -40 31 -21 53 17 21 37 19 50 -4z"/>
<path d="M1980 1000 c0 -26 23 -100 31 -100 5 0 12 14 16 30 3 17 9 30 13 30
5 0 11 -13 15 -30 4 -16 10 -30 15 -30 8 0 40 102 33 110 -7 8 -23 -24 -23
-48 0 -32 -16 -19 -24 19 -7 36 -16 32 -33 -14 l-11 -32 -7 33 c-7 31 -25 55
-25 32z"/>
<path d="M2130 955 c0 -30 5 -55 10 -55 6 0 10 25 10 55 0 30 -4 55 -10 55 -5
0 -10 -25 -10 -55z"/>
<path d="M2170 999 c0 -5 7 -9 15 -9 11 0 15 -12 15 -45 0 -25 5 -45 10 -45 6
0 10 20 10 45 0 35 4 45 17 45 9 0 13 3 10 7 -11 10 -77 12 -77 2z"/>
<path d="M2270 956 c0 -31 5 -56 10 -56 6 0 10 12 10 26 0 34 31 29 41 -6 5
-17 7 -5 7 35 0 40 -2 52 -7 35 -9 -31 -41 -40 -41 -11 0 11 -4 23 -10 26 -6
4 -10 -15 -10 -49z"/>
<path d="M2580 998 c0 -5 5 -8 10 -8 6 0 10 -20 10 -45 0 -25 5 -45 10 -45 6
0 10 20 10 45 0 33 4 45 15 45 8 0 15 4 15 8 0 5 -16 8 -35 8 -19 -1 -35 -4
-35 -8z"/>
<path d="M2686 979 c-24 -58 -28 -79 -17 -79 6 0 11 5 11 10 0 15 48 12 53 -2
2 -7 7 -10 11 -7 7 7 -20 87 -35 103 -5 6 -15 -5 -23 -25z m20 -36 c-11 -11
-17 4 -9 23 7 18 8 18 11 1 2 -10 1 -21 -2 -24z"/>
<path d="M2770 956 l0 -54 30 26 c35 30 38 57 11 72 -35 18 -41 12 -41 -44z
m40 14 c0 -11 -7 -20 -15 -20 -8 0 -15 9 -15 20 0 11 7 20 15 20 8 0 15 -9 15
-20z"/>
<path d="M3240 1003 c-59 -22 -77 -90 -40 -150 32 -53 98 -56 146 -8 28 28 31
72 9 115 -23 44 -67 61 -115 43z m74 -59 c25 -24 19 -52 -14 -69 -37 -19 -45
-19 -64 1 -26 26 -19 53 17 69 41 18 42 18 61 -1z"/>
<path d="M2438 953 c-9 -26 -14 -50 -11 -53 3 -3 8 1 10 8 3 6 15 12 28 12 13
0 25 -6 28 -12 2 -7 8 -10 12 -6 10 9 -25 98 -39 98 -6 0 -19 -21 -28 -47z
m42 -5 c0 -5 -7 -8 -15 -8 -17 0 -18 2 -9 25 5 13 8 14 15 3 5 -7 9 -16 9 -20z"/>
<path d="M4491 940 l-32 -60 82 -40 83 -40 13 22 c10 19 9 25 -4 35 -9 7 -20
14 -26 16 -6 2 -5 16 3 39 18 50 -5 88 -54 88 -30 0 -36 -5 -65 -60z m77 -14
c6 -27 -11 -38 -33 -22 -17 12 -17 16 -6 30 17 20 35 16 39 -8z"/>
<path d="M3416 693 c-53 -63 -55 -68 -39 -85 16 -18 18 -18 41 12 13 16 28 30
33 30 5 0 9 -27 9 -60 0 -48 4 -61 19 -70 17 -9 27 -1 75 56 31 36 56 69 56
74 0 5 -8 14 -18 19 -15 8 -23 4 -41 -19 -12 -17 -26 -30 -31 -30 -6 0 -10 26
-10 58 0 52 -11 82 -31 82 -4 0 -32 -30 -63 -67z"/>
<path d="M4319 721 l-23 -19 17 -56 c10 -31 25 -72 33 -91 13 -32 16 -34 35
-23 12 8 18 20 15 31 -5 20 38 54 64 49 9 -1 24 6 33 16 15 17 12 20 -62 65
-44 26 -81 47 -84 47 -3 0 -15 -8 -28 -19z m79 -88 c-15 -19 -23 -16 -36 12
-17 37 -15 38 18 19 22 -14 27 -21 18 -31z"/>
<path d="M4082 596 c-73 -18 -82 -23 -80 -41 2 -16 9 -19 35 -17 34 4 33 6 59
-101 5 -23 10 -26 28 -21 30 9 30 8 13 76 -17 67 -15 78 13 78 23 0 30 10 21
30 -5 14 -15 14 -89 -4z"/>
<path d="M3730 593 c0 -5 -9 -45 -19 -89 l-18 -82 56 -11 c31 -6 66 -14 77
-17 16 -4 23 0 27 15 3 12 0 21 -6 21 -34 0 -87 23 -87 37 0 12 8 14 44 9 34
-5 45 -4 49 9 5 11 -5 18 -39 26 -25 7 -43 17 -41 23 4 12 25 13 73 3 26 -5
33 -3 37 13 4 16 -5 21 -65 34 -80 18 -88 19 -88 9z"/>
</g>
</svg>
