<svg version="1.1" id="Layer_1" xmlns="http://www.w3.org/2000/svg" xmlns:xlink="http://www.w3.org/1999/xlink" x="0px" y="0px"
	 width="100%" viewBox="0 0 854 292" enable-background="new 0 0 854 292" xml:space="preserve">
<path fill="#000000" opacity="1.000000" stroke="none" 
	d="
M662.000000,293.000000 
	C441.333344,293.000000 221.166672,293.000000 1.000000,293.000000 
	C1.000000,195.666672 1.000000,98.333336 1.000000,1.000000 
	C285.666656,1.000000 570.333313,1.000000 855.000000,1.000000 
	C855.000000,98.333336 855.000000,195.666672 855.000000,293.000000 
	C790.833313,293.000000 726.666687,293.000000 662.000000,293.000000 
M351.038422,181.573135 
	C351.345398,181.744614 351.652344,181.916092 351.927216,182.019150 
	C351.927216,182.019150 351.889648,182.084747 352.127472,182.701935 
	C353.061615,183.191376 353.995728,183.680801 354.965607,184.091217 
	C354.965607,184.091217 354.880066,184.076859 355.155426,184.731400 
	C357.407288,185.881775 359.659149,187.032150 361.969727,188.122986 
	C361.969727,188.122986 361.902313,188.073532 362.215515,188.766937 
	C366.454468,189.777847 370.693420,190.788757 375.853821,192.019501 
	C382.252258,191.618530 388.650726,191.217575 395.797485,190.919067 
	C397.976868,189.956253 400.156281,188.993439 402.659393,188.122223 
	C402.659393,188.122223 402.951660,187.955688 403.633759,188.021820 
	C404.462738,187.376938 405.291718,186.732056 406.035370,186.093933 
	C406.035370,186.093933 406.076447,186.169067 406.725708,186.028427 
	C407.524780,185.378036 408.323853,184.727646 409.037323,184.102493 
	C409.037323,184.102493 409.082794,184.179321 409.743042,184.032181 
	C410.864594,183.048782 411.986145,182.065369 413.068848,181.016068 
	C413.068848,181.016068 413.041077,181.087341 413.574371,180.959976 
	C413.746368,180.652710 413.918396,180.345459 414.017517,180.017334 
	C414.017517,180.017334 414.038635,180.090134 414.570923,179.956833 
	C414.744385,179.650070 414.917847,179.343307 415.018127,179.018524 
	C415.018127,179.018524 415.037567,179.091354 415.569672,178.957870 
	C415.743042,178.651382 415.916443,178.344910 416.022430,178.072906 
	C416.022430,178.072906 416.081512,178.120224 416.705688,177.864777 
	C417.865082,176.273560 419.024445,174.682358 420.111755,173.040802 
	C420.111755,173.040802 420.080902,173.123138 420.737976,172.834991 
	C422.537781,168.907837 424.337616,164.980698 426.856140,160.672256 
	C428.017975,153.401093 429.686340,146.259903 428.139893,138.710693 
	C426.819763,132.266052 425.718994,125.931229 421.102173,120.968498 
	C421.102173,120.968498 421.173157,120.923058 421.027313,120.276031 
	C420.379395,119.475609 419.731445,118.675186 419.104156,117.956039 
	C419.104156,117.956039 419.175934,117.912643 419.022461,117.244934 
	C417.709473,115.795776 416.396515,114.346626 415.002472,112.988594 
	C415.002472,112.988594 415.101532,112.917603 414.862885,112.291054 
	C413.598633,111.470322 412.334381,110.649590 411.008667,109.908394 
	C411.008667,109.908394 411.092346,109.964073 410.957153,109.432686 
	C410.650940,109.259361 410.344727,109.086044 410.061707,108.986382 
	C410.061707,108.986382 410.104034,108.921806 409.873596,108.303566 
	C408.945312,107.810760 408.017029,107.317947 407.019684,106.889252 
	C407.019684,106.889252 407.087891,106.954277 406.953674,106.420784 
	C406.636078,106.296364 406.318481,106.171944 405.682983,105.879250 
	C405.682983,105.879250 405.335846,105.973549 404.947388,105.385864 
	C403.949890,104.939056 402.952362,104.492249 401.661957,103.877022 
	C401.661957,103.877022 401.337036,103.969658 400.889923,103.331131 
	C398.941315,102.848473 396.992737,102.365814 394.670166,101.152138 
	C388.318787,100.759972 381.850922,99.453484 375.650085,100.243324 
	C369.919281,100.973305 364.474548,103.949593 358.977417,105.902122 
	C358.977417,105.902122 358.930603,105.835724 358.238190,105.976486 
	C356.795410,106.961632 355.352631,107.946777 353.962280,108.994728 
	C353.962280,108.994728 353.961273,108.912933 353.430176,109.044868 
	C353.257080,109.351173 353.083984,109.657478 352.982239,109.896896 
	C352.982239,109.896896 352.911438,109.829430 352.222870,109.971611 
	C349.757507,112.617661 347.292175,115.263718 344.887543,117.964409 
	C344.887543,117.964409 344.929413,117.894264 344.279999,118.155655 
	C342.895996,120.764191 341.511993,123.372726 339.979126,126.414520 
	C339.979126,126.414520 339.988007,126.872551 339.283966,127.185028 
	C338.849854,127.851341 338.259674,128.463226 338.005432,129.192276 
	C335.014038,137.770233 333.798187,146.691055 336.167511,155.427811 
	C337.833618,161.571396 341.276733,167.233078 343.898804,173.032013 
	C343.898804,173.032013 343.829407,173.076843 343.969635,173.725159 
	C344.618805,174.519302 345.267975,175.313446 345.983551,176.069962 
	C345.983551,176.069962 345.912720,176.041504 346.039246,176.574432 
	C346.346252,176.745773 346.653290,176.917114 346.983978,177.015717 
	C346.983978,177.015717 346.911621,177.040573 347.039917,177.574005 
	C347.347382,177.746201 347.654816,177.918411 347.982361,178.017685 
	C347.982361,178.017685 347.909576,178.038208 348.042725,178.570602 
	C348.349457,178.744064 348.656158,178.917526 348.981781,179.017853 
	C348.981781,179.017853 348.908997,179.038086 349.042786,179.570312 
	C349.349487,179.743851 349.656219,179.917404 349.981750,180.017807 
	C349.981750,180.017807 349.908997,180.038101 350.042236,180.569809 
	C350.348541,180.742874 350.654846,180.915939 350.982788,181.015915 
	C350.982788,181.015915 350.910553,181.040298 351.038422,181.573135 
M471.952423,132.410110 
	C471.667480,132.241669 471.382568,132.073242 470.853210,131.279022 
	C461.205170,121.627487 451.630432,111.900299 441.833893,102.401962 
	C440.276154,100.891663 437.720764,100.410378 434.977051,99.156509 
	C434.977051,129.742020 434.970917,158.871872 435.014679,188.001633 
	C435.015717,188.681870 435.577820,189.361252 436.318787,190.810715 
	C461.550873,190.873322 486.782928,190.942978 512.015015,190.956665 
	C512.626587,190.957001 513.238464,190.334198 514.246460,189.254807 
	C514.171448,185.110687 514.035645,180.966644 514.031494,176.822449 
	C514.009827,154.996796 514.017822,133.171097 514.030396,111.345428 
	C514.031128,110.020592 514.332153,108.676956 514.188965,107.375580 
	C513.988342,105.553322 513.501526,103.762573 512.687256,101.192650 
	C504.273651,101.128967 495.859711,101.003311 487.446625,101.044174 
	C485.279541,101.054695 483.115021,101.589058 480.169250,102.307648 
	C480.105438,113.360130 480.073914,124.412994 479.939453,135.464615 
	C479.921417,136.948792 479.384552,138.426651 478.950104,139.412354 
	C478.663208,139.243103 478.376282,139.073853 477.951050,138.410187 
	C477.664246,138.241257 477.377411,138.072327 476.951202,137.409485 
	C476.664459,137.240692 476.377686,137.071899 475.951172,136.409393 
	C475.664490,136.240555 475.377808,136.071732 474.950928,135.409531 
	C474.664459,135.240509 474.377991,135.071487 473.950409,134.409790 
	C473.664337,134.240463 473.378265,134.071152 472.951752,133.408722 
	C472.665527,133.239349 472.379333,133.069977 471.952423,132.410110 
M70.974709,257.029327 
	C70.974709,257.029327 70.889816,257.068329 71.140343,257.679169 
	C72.071869,258.157440 73.003395,258.635712 73.974846,259.029327 
	C73.974846,259.029327 73.889824,259.068481 74.173645,259.717438 
	C78.093880,261.849854 82.014114,263.982239 85.974678,266.029755 
	C85.974678,266.029755 85.889351,266.069183 86.205917,266.728302 
	C90.294785,268.509949 94.320488,270.457703 98.484627,272.041412 
	C109.925110,276.392487 121.552895,280.000275 134.720184,280.007050 
	C135.461502,280.047882 136.202805,280.088684 137.397949,280.875458 
	C143.618790,280.625031 149.839630,280.374603 156.848114,280.028992 
	C157.900513,279.968811 158.952896,279.908630 160.883942,279.990631 
	C164.922958,279.500885 169.107391,279.522156 172.972763,278.422211 
	C183.124557,275.533356 193.626236,273.183899 203.071289,268.691223 
	C212.981552,263.977234 221.825714,257.021942 231.601700,250.939713 
	C231.904205,250.757065 232.052322,250.489090 232.741989,250.008591 
	C238.206223,244.354172 243.670456,238.699753 249.711121,232.853516 
	C250.489426,231.947327 251.267731,231.041153 252.686844,229.852875 
	C253.835815,227.916885 254.984772,225.980896 256.599976,223.940201 
	C256.902954,223.758148 257.051239,223.490417 257.553070,222.950516 
	C257.651184,222.641312 257.749268,222.332108 258.008759,221.591232 
	C258.008759,221.591232 258.044769,221.131775 258.658508,220.874893 
	C259.143066,219.937820 259.627625,219.000748 260.028168,218.024170 
	C260.028168,218.024170 260.067017,218.108459 260.677826,217.858047 
	C261.156036,216.926666 261.634247,215.995300 262.028412,215.024384 
	C262.028412,215.024384 262.067230,215.108795 262.717346,214.825455 
	C263.849152,212.571732 264.980957,210.318008 266.028473,208.024536 
	C266.028473,208.024536 266.067535,208.109146 266.739716,207.804352 
	C268.612579,203.601334 271.007660,199.546707 272.252594,195.165283 
	C275.084930,185.197037 277.352448,175.068314 280.008545,164.226501 
	C280.048248,163.169373 280.087982,162.112244 280.874298,160.601318 
	C280.917023,152.208847 281.020569,143.815933 280.960846,135.424179 
	C280.945465,133.260849 280.416840,131.101151 280.029266,128.203781 
	C279.969147,127.467522 279.909058,126.731262 279.990570,125.161118 
	C276.091583,112.683159 273.129852,99.801498 267.986084,87.859703 
	C264.127289,78.900993 257.462311,71.151009 251.940216,62.397636 
	C251.757889,62.095608 251.490341,61.947544 251.009827,61.257473 
	C246.388474,56.384453 242.007034,51.249916 237.070236,46.720741 
	C233.083481,43.063160 228.426987,40.135593 224.026596,36.969994 
	C224.026596,36.969994 224.112671,36.929527 223.832306,36.286873 
	C218.910187,33.486141 213.988083,30.685408 209.025970,27.969709 
	C209.025970,27.969709 209.111404,27.930584 208.806747,27.259836 
	C205.531128,25.661377 202.337463,23.859587 198.965347,22.500572 
	C186.137222,17.330647 173.138245,12.789660 158.366470,12.991586 
	C157.929535,12.951360 157.492615,12.911134 156.601974,12.124882 
	C150.381210,12.374907 144.160446,12.624932 137.151993,12.970353 
	C136.099518,13.030878 135.047043,13.091403 133.106018,13.010202 
	C128.896545,13.410154 124.583969,13.358274 120.496094,14.291105 
	C105.659744,17.676680 91.178810,22.255526 78.217613,30.450254 
	C71.726318,34.554379 65.786964,39.531471 59.278931,44.267849 
	C59.278931,44.267849 59.119602,44.584320 58.577084,44.929260 
	C57.758774,45.411434 56.822857,45.765762 56.139385,46.394512 
	C39.973427,61.266125 27.695744,78.872528 20.286852,99.549072 
	C16.322762,110.611961 12.868026,121.964890 12.992410,134.851837 
	C12.952054,136.882721 12.911698,138.913605 12.129004,141.391891 
	C12.378066,145.947845 12.627127,150.503799 12.972018,155.710510 
	C13.032093,156.142319 13.092168,156.574127 13.010508,157.910355 
	C13.339658,161.970688 13.053625,166.201080 14.119768,170.057678 
	C16.732424,179.508560 19.968964,188.786957 22.979626,198.767960 
	C23.037445,199.183548 23.095264,199.599152 23.065935,200.545837 
	C23.357361,200.736588 23.648787,200.927338 23.969177,201.035553 
	C23.969177,201.035553 23.886938,201.065384 23.996397,201.804260 
	C26.308815,205.905563 28.621233,210.006851 30.973005,214.023972 
	C30.973005,214.023972 30.889078,214.063889 30.996881,214.792145 
	C33.308502,218.231644 35.620121,221.671143 37.971977,225.025406 
	C37.971977,225.025406 37.886986,225.066162 37.993782,225.771896 
	C40.033985,228.315216 42.074192,230.858536 44.270733,233.726196 
	C44.270733,233.726196 44.594456,233.883774 44.903690,234.337646 
	C45.580269,234.928040 46.256844,235.518433 46.973431,236.024490 
	C46.973431,236.024490 46.889145,236.064606 46.994011,236.761734 
	C50.307777,239.878433 53.621540,242.995132 56.975628,246.027344 
	C56.975628,246.027344 56.891014,246.067398 57.151619,246.690430 
	C59.412758,248.497711 61.673897,250.304993 63.975395,252.027710 
	C63.975395,252.027710 63.890640,252.067703 64.148186,252.687317 
	C65.410248,253.496017 66.672302,254.304733 67.974861,255.028580 
	C67.974861,255.028580 67.889709,255.068451 68.140816,255.679047 
	C69.072227,256.157349 70.003639,256.635620 70.974709,257.029327 
M832.049866,110.993515 
	C832.049866,110.993515 832.091919,110.924408 831.837463,110.267471 
	C829.568787,109.218269 827.300110,108.169075 824.348267,106.808350 
	C820.856567,105.530937 817.364807,104.253525 813.671387,102.154099 
	C810.306274,101.754822 806.945557,101.062508 803.575134,101.011253 
	C793.512634,100.858238 783.444885,100.874107 773.382996,101.045601 
	C771.875122,101.071304 770.387573,102.285965 768.133728,103.389763 
	C768.089600,131.156784 768.036682,158.923798 768.042603,186.690796 
	C768.042786,187.551483 768.652954,188.412018 768.897034,189.641327 
	C768.897034,189.641327 769.078735,189.972366 769.345032,190.819794 
	C779.599426,190.878632 789.853882,190.955658 800.108276,190.954620 
	C800.779541,190.954559 801.450806,190.356750 802.888916,189.614960 
	C802.888916,181.531342 802.888916,173.447723 802.888916,165.172195 
	C806.557068,164.757080 809.852051,164.788116 812.909180,163.950851 
	C818.588196,162.395477 825.114136,162.602264 829.729309,156.818008 
	C834.098511,153.113464 837.444092,148.706818 839.818420,142.702972 
	C840.145325,140.994019 840.652283,139.297287 840.769165,137.574097 
	C841.413818,128.072205 840.236450,119.083748 833.004395,111.955994 
	C833.004395,111.955994 833.086426,111.960060 832.957581,111.428856 
	C832.651489,111.257011 832.345459,111.085167 832.049866,110.993515 
M744.027405,150.186020 
	C741.399658,145.108093 738.771973,140.030167 736.022095,134.210693 
	C730.675049,123.311104 725.430725,112.358284 719.846313,101.581680 
	C719.175293,100.286797 716.659729,99.947708 714.281555,99.176407 
	C712.462524,103.114891 710.643433,107.053368 708.168518,111.292534 
	C706.109131,116.146820 704.049744,121.001099 701.464294,126.049370 
	C701.279968,126.360710 701.095703,126.672050 700.981384,126.929405 
	C700.981384,126.929405 700.921692,126.864189 700.265503,127.157425 
	C694.577148,138.744934 688.888733,150.332443 682.863037,162.563568 
	C679.564148,169.013809 676.223938,175.443451 672.988892,181.925522 
	C671.860901,184.185684 670.992065,186.575211 669.238892,189.259567 
	C669.884583,189.839813 670.528870,190.925797 671.176147,190.927612 
	C700.959656,191.011200 730.743591,191.015030 760.527039,190.917725 
	C761.304993,190.915192 762.078918,189.689453 763.003174,188.294205 
	C760.958984,184.191391 758.914795,180.088593 757.005371,175.239365 
	C756.682312,174.518661 756.402100,173.775009 756.029724,173.080780 
	C752.055664,165.671860 748.067017,158.270767 744.101746,150.959305 
	C744.101746,150.959305 744.185364,150.916733 744.027405,150.186020 
M585.702881,150.014664 
	C586.137573,149.959625 586.572327,149.904587 587.859924,149.985962 
	C588.391113,147.484497 588.922302,144.983032 589.666992,141.475906 
	C579.257385,141.475906 569.825745,141.475906 560.213135,141.475906 
	C560.213135,138.869736 560.213135,137.143707 560.213135,135.017792 
	C570.611755,135.017792 580.846863,135.091232 591.078369,134.930420 
	C592.450012,134.908859 593.803040,133.704300 595.878479,132.676254 
	C595.829834,124.057671 595.866516,115.437027 595.658325,106.822296 
	C595.618164,105.162979 594.617981,103.526863 593.607178,101.132072 
	C572.235840,101.088669 550.864502,101.035080 529.493164,101.039467 
	C528.645569,101.039642 527.798157,101.591576 526.242737,102.217636 
	C526.162476,105.302437 526.015076,108.387184 526.012634,111.472046 
	C525.993042,136.003632 525.982727,160.535263 526.041077,185.066727 
	C526.045044,186.729141 526.629822,188.390198 527.350037,190.833984 
	C549.237793,190.888580 571.125549,190.951233 593.013306,190.955948 
	C593.624939,190.956070 594.236633,190.336075 595.222412,189.275742 
	C595.494934,188.715714 596.001648,188.157059 596.004883,187.595459 
	C596.056763,178.698959 596.108093,169.801010 595.958496,160.906784 
	C595.941345,159.888611 594.718323,158.890717 593.605774,157.132889 
	C582.438904,157.132889 571.271973,157.132889 560.041626,157.132889 
	C560.041626,154.726013 560.041626,152.918945 560.968445,151.006790 
	C564.729309,151.004730 568.494690,151.117096 572.249939,150.970428 
	C576.520996,150.803589 580.783081,150.405334 585.702881,150.014664 
M626.338806,190.865280 
	C637.211365,190.865280 648.083862,190.865280 659.283386,190.865280 
	C659.283386,171.957230 659.283386,153.593735 659.283386,135.034027 
	C661.762573,135.034027 663.908081,135.124649 666.043335,135.015472 
	C670.712524,134.776688 675.376404,134.436462 680.807678,133.687378 
	C680.870911,124.360527 680.917542,115.033516 681.006042,105.706909 
	C681.037842,102.351097 679.349609,100.979950 676.102905,100.983849 
	C652.770752,101.011848 629.438599,101.021561 606.106567,100.977432 
	C602.604126,100.970810 600.923950,102.412949 600.977417,105.997856 
	C601.061890,111.662971 600.891724,117.333061 601.038025,122.995651 
	C601.133240,126.681847 601.598755,130.358475 602.320068,134.819000 
	C609.865662,134.819000 617.411316,134.819000 625.001099,134.819000 
	C625.001099,152.343948 624.977234,168.950775 625.041382,185.557266 
	C625.047241,187.067383 625.618408,188.575333 626.338806,190.865280 
z"/>
<path fill="#F5F6EA" opacity="1.000000" stroke="none" 
	d="
M133.994568,13.151928 
	C135.047043,13.091403 136.099518,13.030878 137.827789,13.241203 
	C144.687607,13.298339 150.871643,13.084623 157.055679,12.870909 
	C157.492615,12.911134 157.929535,12.951360 158.778229,13.441142 
	C164.125870,14.762455 169.206070,15.159674 173.966751,16.607519 
	C183.089844,19.382078 192.015060,22.802031 201.058548,25.846804 
	C203.679581,26.729258 206.423706,27.246120 209.111404,27.930584 
	C209.111404,27.930584 209.025970,27.969709 209.070892,28.279661 
	C214.114761,31.369583 219.113724,34.149551 224.112671,36.929523 
	C224.112671,36.929527 224.026596,36.969994 224.056473,37.281616 
	C232.776520,45.686352 241.464066,53.782280 250.174149,61.853893 
	C250.363464,62.029335 250.810684,61.926479 251.137604,61.953438 
	C251.490341,61.947544 251.757889,62.095608 251.978638,63.022652 
	C252.668243,65.255165 253.095215,67.005180 254.010300,68.444946 
	C257.539612,73.997879 262.272125,79.039024 264.632446,85.028969 
	C269.434143,97.214561 272.941772,109.907463 277.117828,122.345955 
	C277.577026,123.713768 278.917297,124.785797 279.848969,125.995010 
	C279.909058,126.731262 279.969147,127.467522 279.758270,128.854187 
	C279.354095,139.489410 279.204773,149.474106 279.132996,159.459351 
	C279.129181,159.988861 279.781067,160.523087 280.127686,161.055115 
	C280.087982,162.112244 280.048248,163.169373 279.569519,164.698578 
	C278.687347,166.166168 278.123962,167.126373 277.819641,168.162659 
	C274.866638,178.218414 271.966980,188.289810 269.029388,198.350113 
	C268.076538,201.613174 267.056702,204.856689 266.067535,208.109146 
	C266.067535,208.109146 266.028473,208.024536 265.712402,208.072601 
	C264.286652,210.450043 263.176941,212.779419 262.067230,215.108795 
	C262.067230,215.108795 262.028412,215.024384 261.709290,215.076813 
	C260.949127,216.122314 260.508087,217.115387 260.067017,218.108459 
	C260.067017,218.108459 260.028168,218.024170 259.707397,218.077606 
	C258.939331,219.131302 258.492065,220.131546 258.044769,221.131775 
	C258.044769,221.131775 258.008759,221.591232 257.731506,221.940430 
	C257.239014,222.534027 257.102539,222.816483 257.044800,223.136993 
	C257.051239,223.490417 256.902954,223.758148 255.993378,224.014053 
	C254.273209,226.103592 253.159622,228.119278 252.046036,230.134964 
	C251.267731,231.041153 250.489426,231.947327 249.069229,232.964386 
	C244.928909,236.240356 241.286346,239.263550 237.982376,242.620056 
	C235.756119,244.881699 234.008026,247.614014 232.046036,250.135788 
	C232.052322,250.489090 231.904205,250.757065 230.991577,250.982147 
	C228.253036,252.183350 225.998291,253.159378 224.016068,254.529663 
	C207.405426,266.012207 189.309235,273.803253 169.306427,277.083527 
	C166.140060,277.602753 163.102432,278.907104 160.005295,279.848450 
	C158.952896,279.908630 157.900513,279.968811 156.172012,279.758423 
	C149.311981,279.701721 143.128052,279.915619 136.944122,280.129517 
	C136.202805,280.088684 135.461502,280.047882 134.259949,279.551819 
	C133.441986,278.778168 133.095062,278.194519 132.724991,278.179474 
	C117.683235,277.566681 104.001854,271.980347 90.228004,266.690216 
	C88.898407,266.179565 87.341011,266.262024 85.889351,266.069183 
	C85.889351,266.069183 85.974678,266.029755 85.928749,265.719299 
	C81.885155,263.295410 77.887489,261.181946 73.889832,259.068481 
	C73.889824,259.068481 73.974846,259.029327 73.923187,258.710022 
	C72.877632,257.949951 71.883728,257.509125 70.889816,257.068329 
	C70.889816,257.068329 70.974709,257.029327 70.922775,256.710144 
	C69.877129,255.950104 68.883415,255.509277 67.889709,255.068451 
	C67.889709,255.068451 67.974861,255.028580 67.938156,254.700775 
	C66.564514,253.604553 65.227577,252.836121 63.890640,252.067703 
	C63.890640,252.067703 63.975395,252.027710 63.944176,251.712769 
	C61.572311,249.621017 59.231663,247.844208 56.891014,246.067398 
	C56.891014,246.067398 56.975628,246.027344 56.945290,245.717224 
	C53.573013,242.292938 50.231079,239.178772 46.889145,236.064606 
	C46.889145,236.064606 46.973431,236.024490 46.963867,235.674942 
	C46.167690,234.844849 45.381073,234.364319 44.594456,233.883774 
	C44.594456,233.883774 44.270733,233.726196 44.402573,233.249146 
	C42.318604,230.203430 40.102798,227.634796 37.886990,225.066162 
	C37.886986,225.066162 37.971977,225.025406 37.969086,224.687408 
	C35.607155,220.920898 33.248116,217.492401 30.889080,214.063889 
	C30.889078,214.063889 30.973005,214.023972 30.968513,213.676071 
	C28.604994,209.240570 26.245966,205.152985 23.886938,201.065384 
	C23.886938,201.065384 23.969177,201.035553 23.885370,200.852386 
	C23.669882,200.367386 23.453722,200.149216 23.153084,200.014740 
	C23.095264,199.599152 23.037445,199.183548 22.981846,198.031998 
	C22.727839,195.691666 22.586275,194.058807 22.196199,192.487671 
	C20.147604,184.236435 18.042379,175.999222 15.943646,167.760483 
	C15.029390,164.171494 14.083670,160.590546 13.152241,157.005936 
	C13.092168,156.574127 13.032093,156.142319 13.240655,155.105103 
	C13.296642,149.981293 13.083993,145.462891 12.871344,140.944489 
	C12.911698,138.913605 12.952054,136.882721 13.447139,134.326050 
	C15.259642,127.275322 16.323055,120.672432 18.026806,114.239120 
	C24.924158,88.194893 37.657402,65.630791 58.196545,47.785519 
	C58.900177,47.174171 58.829418,45.671528 59.119606,44.584320 
	C59.119602,44.584320 59.278931,44.267849 59.752918,44.400639 
	C60.712162,44.527779 61.313831,44.708744 61.665688,44.489250 
	C70.917252,38.717953 79.859161,32.375221 89.448479,27.240337 
	C100.242439,21.460388 111.896179,17.698362 124.132393,15.923206 
	C127.483276,15.437079 130.710571,14.099031 133.994568,13.151928 
M146.604111,97.250732 
	C144.194397,94.365753 141.812057,91.457336 139.368362,88.601440 
	C135.954758,84.612038 131.667343,81.100578 129.272049,76.580139 
	C126.484276,71.319023 120.779274,67.105392 114.972740,68.597244 
	C101.881943,71.960632 90.932045,79.272659 81.423866,88.488518 
	C69.391510,100.150932 62.456856,114.241600 65.204926,131.526428 
	C65.764168,135.043930 67.588196,139.080261 70.159805,141.406357 
	C75.331436,146.084213 80.007294,151.530472 88.753906,150.803833 
	C95.186859,150.269394 100.572350,149.658112 104.360718,144.048813 
	C106.121735,144.233170 108.342003,145.197556 109.569115,144.475082 
	C117.441734,139.840012 125.089104,134.823135 132.827133,129.958206 
	C135.398636,128.341492 138.609360,127.317276 140.511063,125.135803 
	C147.324295,117.320244 150.436996,108.373451 146.604111,97.250732 
M195.339172,117.116493 
	C196.909744,115.229286 198.912033,113.552719 199.957733,111.409431 
	C201.915390,107.396980 202.793732,102.783997 205.135849,99.058853 
	C206.716003,96.545609 209.776718,94.310539 212.636017,93.402901 
	C217.252533,91.937454 222.241974,91.623123 227.085861,90.902908 
	C235.977234,89.580879 244.877274,88.317291 253.707382,87.038948 
	C253.439484,82.769585 253.946686,79.154175 252.849030,76.119186 
	C251.228607,71.638832 243.045685,68.350296 237.878067,69.289787 
	C232.810501,70.211098 227.749161,71.167671 222.691010,72.139603 
	C215.335495,73.552994 215.337769,73.564789 211.881714,66.708946 
	C208.874954,60.744370 205.580704,60.289341 201.080963,65.353325 
	C199.883102,66.701393 198.930420,68.312759 198.082962,69.918198 
	C195.558731,74.700027 191.717255,77.675140 186.308746,77.990891 
	C178.855362,78.426041 171.367874,78.857658 163.921097,78.583031 
	C160.139114,78.443565 158.815033,80.002312 159.045685,83.022202 
	C159.294739,86.283348 160.194092,89.528191 161.099533,92.697350 
	C162.212234,96.591896 164.458069,98.186607 168.956100,97.346382 
	C173.773026,96.446587 178.816269,96.758217 184.817429,96.494720 
	C183.523132,99.570290 182.842651,101.050613 182.269455,102.571388 
	C178.400742,112.835693 173.540680,122.877930 171.130173,133.476196 
	C169.928787,138.758316 172.714905,145.258057 174.818314,150.779999 
	C175.401794,152.311691 179.983383,152.692917 182.761459,152.799515 
	C183.647385,152.833496 184.941589,150.393585 185.512299,148.882889 
	C186.980637,144.996155 188.357544,141.047379 189.348999,137.019531 
	C189.850052,134.983978 189.436554,132.723312 189.436554,129.825302 
	C194.027802,128.764679 194.302811,124.449730 193.878632,119.709114 
	C193.811859,118.962677 194.317612,118.165009 195.339172,117.116493 
M82.672928,224.979584 
	C79.599785,228.455017 76.353821,231.798035 73.539085,235.471466 
	C72.422897,236.928177 72.263885,239.118317 71.669067,240.974518 
	C73.381348,240.182770 75.292709,239.647110 76.743690,238.519226 
	C77.929558,237.597382 78.566025,235.968781 79.446083,234.653549 
	C79.857079,234.986115 80.268074,235.318680 80.679070,235.651260 
	C80.190788,238.554855 79.520767,241.445312 79.309227,244.368942 
	C79.231377,245.444809 79.985207,246.924057 80.846382,247.589066 
	C81.322289,247.956573 83.158401,247.327377 83.776970,246.619400 
	C87.370956,242.505981 90.851723,238.286896 94.189056,233.963303 
	C94.688652,233.316086 94.231224,231.930161 94.216522,230.885956 
	C93.099930,231.143707 91.682518,231.060699 90.927101,231.727585 
	C89.157005,233.290176 87.704025,235.212021 86.122665,236.988419 
	C85.785240,233.832672 86.464935,231.165207 86.842857,228.455643 
	C87.200394,225.892258 87.002701,223.504242 82.672928,224.979584 
M182.380417,238.284576 
	C182.804443,241.601440 183.228470,244.918289 183.816071,249.514694 
	C181.122086,246.454620 179.310745,244.120590 177.188690,242.115341 
	C176.269180,241.246414 174.709274,241.055191 173.440247,240.556152 
	C173.008942,241.881439 171.996002,243.330612 172.247330,244.510498 
	C173.318634,249.540100 174.662033,254.521042 176.159851,259.442535 
	C176.453156,260.406311 177.872787,261.027283 178.772919,261.806366 
	C179.202148,260.830963 180.007614,259.847198 179.986145,258.881805 
	C179.933456,256.512726 179.499680,254.152100 179.102631,250.805496 
	C181.825409,253.382019 183.755615,255.418381 185.924255,257.157410 
	C186.791748,257.853058 188.798935,258.511719 189.210144,258.103119 
	C190.058594,257.260071 190.785568,255.532196 190.502701,254.443741 
	C189.206970,249.457825 187.658600,244.526199 185.912415,239.679001 
	C185.590195,238.784561 183.936066,238.369949 182.380417,238.284576 
M130.184143,243.998337 
	C121.183319,243.926926 115.338135,251.828598 118.410759,260.252441 
	C119.018967,261.919891 120.651459,263.681274 122.261925,264.427551 
	C127.011986,266.628784 133.213943,263.727692 135.487915,258.648132 
	C138.394577,252.155289 136.745529,246.803116 130.184143,243.998337 
M243.596252,166.251190 
	C248.526062,166.828201 253.448807,167.487579 258.391754,167.911224 
	C259.355682,167.993835 260.482635,167.278702 261.342529,166.663422 
	C261.547943,166.516434 261.063843,164.695206 260.760986,164.654480 
	C255.721680,163.976883 255.424957,159.849670 253.789322,156.262863 
	C252.888718,154.287903 249.449539,152.145294 247.333847,152.314606 
	C242.314819,152.716263 240.481155,157.138000 239.915146,161.522659 
	C239.740021,162.879272 241.788940,164.522980 243.596252,166.251190 
M255.333328,182.866409 
	C256.221313,182.151199 257.109283,181.436005 257.997253,180.720795 
	C257.165527,180.055557 256.412811,178.968384 255.488922,178.795334 
	C250.473022,177.855911 245.426361,177.050949 240.363373,176.413361 
	C239.057999,176.248978 237.655609,176.854935 236.297775,177.107025 
	C236.844818,178.531509 236.995026,180.406067 238.009430,181.300461 
	C241.845978,184.683182 245.890335,187.847214 250.023056,190.865646 
	C251.135681,191.678268 252.835602,191.686798 254.265930,192.064438 
	C253.742401,190.606857 253.497589,188.953384 252.638824,187.731415 
	C250.696640,184.967865 249.674896,182.874283 255.333328,182.866409 
M28.214132,162.622894 
	C28.505577,163.003830 28.873188,163.754257 29.077417,163.712143 
	C35.652565,162.356735 42.223148,160.969635 48.733036,159.341827 
	C48.995735,159.276123 49.008995,155.795609 48.554066,155.642502 
	C42.462425,153.592224 36.281593,151.796097 30.074606,150.115311 
	C29.415310,149.936798 28.253475,150.722580 27.713284,151.380142 
	C27.451820,151.698441 27.872311,153.010452 28.362774,153.434769 
	C30.100590,154.938110 32.001682,156.252731 33.840900,157.638870 
	C31.978476,159.047241 30.116051,160.455612 28.214132,162.622894 
M221.981964,228.531158 
	C218.879059,226.074005 215.838608,223.530701 212.637161,221.209442 
	C211.607758,220.463074 210.153824,220.302185 208.894119,219.873459 
	C208.683823,221.279648 207.945114,222.867233 208.354767,224.060608 
	C210.125504,229.219086 212.126480,234.308228 214.302048,239.310226 
	C214.761627,240.366898 216.307968,240.950897 217.353577,241.752686 
	C217.689209,240.469681 218.122345,239.202591 218.334930,237.899506 
	C218.582230,236.383667 218.636353,234.836319 218.774292,233.302643 
	C220.124573,233.629181 221.460251,234.097321 222.829636,234.238358 
	C223.966431,234.355453 225.142868,234.087509 226.301743,233.990143 
	C225.977936,232.998474 225.864716,231.850098 225.274384,231.056732 
	C224.609589,230.163254 223.514877,229.589645 221.981964,228.531158 
M99.638893,251.973831 
	C100.529831,251.705795 101.404755,251.323853 102.315369,251.195801 
	C103.769104,250.991409 105.246567,250.955765 106.713997,250.848755 
	C105.986443,249.675110 105.053474,248.576736 104.588089,247.307007 
	C104.105972,245.991608 103.468590,244.150742 104.026703,243.205475 
	C104.551193,242.317139 106.550850,241.962204 107.895370,241.975769 
	C109.848267,241.995453 111.795708,242.556885 113.745468,242.887283 
	C113.911247,242.249405 114.077019,241.611542 114.242798,240.973663 
	C112.597801,240.036255 111.004066,238.990952 109.298683,238.180649 
	C102.899559,235.140182 102.888702,235.170334 99.712662,241.592743 
	C98.235817,244.579117 96.646889,247.515335 95.303398,250.560150 
	C94.638939,252.066086 94.415596,253.766663 93.992661,255.379166 
	C94.468765,255.685471 94.944878,255.991776 95.420990,256.298065 
	C96.684227,255.065674 97.947472,253.833282 99.638893,251.973831 
M246.432297,201.003998 
	C244.304947,199.712570 242.292755,198.145645 240.022293,197.196564 
	C236.896042,195.889771 235.553268,194.111221 236.857071,190.745712 
	C237.010406,190.349899 236.394882,189.656250 236.139496,189.108643 
	C231.350342,191.137634 227.472504,199.062119 229.473816,203.214523 
	C234.302841,197.488373 238.426727,201.550186 242.699005,204.093765 
	C243.268692,204.432938 243.801712,205.001053 244.403671,205.083389 
	C245.609848,205.248398 246.851974,205.150665 248.079269,205.161407 
	C247.711777,203.929916 247.344284,202.698425 246.432297,201.003998 
M38.237797,198.238663 
	C38.823692,199.432877 39.176628,200.847336 40.049324,201.770386 
	C41.404629,203.203918 43.113777,204.302887 44.672935,205.543671 
	C44.488098,203.671921 44.296604,201.800766 44.124802,199.927826 
	C44.095329,199.606537 44.149765,199.277542 44.196442,198.308426 
	C47.578114,196.950760 51.299194,195.645920 54.830986,193.947495 
	C56.280758,193.250320 57.322311,191.704285 58.549561,190.544388 
	C56.772560,190.344925 54.881927,189.662689 53.242695,190.048523 
	C50.028336,190.805130 46.841511,191.920700 43.860016,193.342255 
	C41.760590,194.343246 40.018967,196.094666 38.237797,198.238663 
M49.163467,171.397644 
	C44.781799,172.119461 40.331680,172.576981 36.050297,173.685928 
	C34.193394,174.166916 31.246422,176.043167 31.289335,177.192505 
	C31.412527,180.491989 31.702665,184.414673 36.860516,186.225723 
	C36.668324,183.246643 36.521076,180.964172 36.340946,178.172012 
	C40.548492,177.447723 44.756126,176.821213 48.912266,175.949249 
	C50.185089,175.682220 51.316654,174.741898 52.512909,174.109894 
	C51.637871,173.264984 50.762833,172.420059 49.163467,171.397644 
M166.073395,262.078644 
	C165.516479,256.661011 165.085403,251.224808 164.292435,245.841934 
	C164.140778,244.812500 162.563065,243.993149 161.643280,243.076859 
	C161.107925,244.149506 160.030838,245.273727 160.127228,246.286255 
	C160.658539,251.867828 161.181259,257.484009 162.328430,262.958038 
	C162.851715,265.455078 164.790146,266.333252 166.073395,262.078644 
M64.851738,229.588211 
	C68.711174,226.171219 72.616371,222.803421 76.388893,219.293030 
	C77.088547,218.641983 77.253517,217.416321 77.665268,216.455856 
	C76.673042,216.088898 75.298836,215.106842 74.747215,215.449402 
	C68.727982,219.187347 63.740677,224.006241 59.722656,229.740250 
	C59.955212,230.159653 60.187767,230.579041 60.420322,230.998444 
	C61.711777,230.693832 63.003231,230.389206 64.851738,229.588211 
z"/>
<path fill="#87B1BC" opacity="1.000000" stroke="none" 
	d="
M395.049164,190.816620 
	C388.650726,191.217575 382.252258,191.618530 375.283020,191.567734 
	C370.442230,190.101822 366.172272,189.087677 361.902313,188.073532 
	C361.902313,188.073532 361.969727,188.122986 362.002441,187.786621 
	C359.650116,186.325790 357.265106,185.201324 354.880066,184.076859 
	C354.880066,184.076859 354.965607,184.091217 354.979065,183.751862 
	C353.958252,182.969925 352.923950,182.527344 351.889648,182.084747 
	C351.889648,182.084747 351.927216,182.019150 351.952148,181.741455 
	C351.621582,181.322601 351.266052,181.181458 350.910553,181.040298 
	C350.910553,181.040298 350.982788,181.015915 350.975891,180.742493 
	C350.615662,180.325409 350.262329,180.181763 349.908997,180.038101 
	C349.908997,180.038101 349.981750,180.017807 349.972351,179.744995 
	C349.611603,179.327499 349.260315,179.182800 348.908997,179.038086 
	C348.908997,179.038086 348.981781,179.017853 348.972412,178.745178 
	C348.611877,178.327744 348.260742,178.182968 347.909576,178.038208 
	C347.909576,178.038208 347.982361,178.017685 347.974365,177.743317 
	C347.614777,177.326172 347.263184,177.183380 346.911621,177.040573 
	C346.911621,177.040573 346.983978,177.015717 346.978882,176.740112 
	C346.620087,176.323502 346.266418,176.182510 345.912720,176.041504 
	C345.912720,176.041504 345.983551,176.069962 346.070923,175.719971 
	C345.381989,174.605606 344.605682,173.841217 343.829407,173.076843 
	C343.829407,173.076843 343.898804,173.032013 344.011932,172.691971 
	C343.805481,171.422943 343.600800,170.433517 343.148773,169.574203 
	C337.827942,159.459534 335.782379,148.821640 337.928558,137.498947 
	C338.600464,133.954056 339.300720,130.414520 339.987976,126.872551 
	C339.988007,126.872551 339.979126,126.414520 340.391052,126.158508 
	C342.178467,123.233078 343.553925,120.563667 344.929382,117.894257 
	C344.929413,117.894264 344.887543,117.964409 345.214966,118.021393 
	C347.998718,115.328735 350.455078,112.579086 352.911438,109.829437 
	C352.911438,109.829430 352.982239,109.896896 353.258362,109.934151 
	C353.676788,109.618584 353.819031,109.265762 353.961273,108.912933 
	C353.961273,108.912933 353.962280,108.994728 354.302429,109.078705 
	C356.071899,108.053696 357.501251,106.944710 358.930603,105.835724 
	C358.930603,105.835724 358.977417,105.902122 359.332062,106.018967 
	C371.114288,101.364937 382.921143,100.649544 395.356079,103.029404 
	C397.587738,103.473503 399.462372,103.721581 401.337036,103.969658 
	C401.337036,103.969658 401.661957,103.877022 401.795715,104.351883 
	C403.064941,105.209015 404.200409,105.591278 405.335846,105.973541 
	C405.335846,105.973549 405.682983,105.879250 405.858765,106.259865 
	C406.385651,106.745079 406.736786,106.849678 407.087891,106.954277 
	C407.087891,106.954277 407.019684,106.889252 406.982147,107.238602 
	C407.997742,108.032570 409.050903,108.477188 410.104034,108.921806 
	C410.104034,108.921806 410.061707,108.986382 410.043671,109.260071 
	C410.381195,109.677193 410.736786,109.820633 411.092346,109.964073 
	C411.092346,109.964073 411.008667,109.908394 411.001099,110.244644 
	C412.362854,111.359802 413.732208,112.138702 415.101532,112.917603 
	C415.101532,112.917603 415.002472,112.988594 414.911865,113.304306 
	C416.272827,115.050903 417.724396,116.481773 419.175934,117.912643 
	C419.175934,117.912643 419.104156,117.956039 418.983276,118.287506 
	C419.632660,119.387001 420.402893,120.155029 421.173157,120.923065 
	C421.173157,120.923058 421.102173,120.968498 420.985168,121.310326 
	C426.797394,134.290268 428.717072,147.348099 424.739746,161.240448 
	C423.022095,165.363388 421.551483,169.243271 420.080902,173.123138 
	C420.080902,173.123138 420.111755,173.040802 419.777924,172.993835 
	C418.323242,174.671310 417.202393,176.395767 416.081543,178.120239 
	C416.081512,178.120224 416.022430,178.072906 415.746521,178.052750 
	C415.326263,178.385513 415.181915,178.738434 415.037567,179.091354 
	C415.037567,179.091354 415.018127,179.018524 414.745575,179.028870 
	C414.328217,179.389542 414.183441,179.739838 414.038635,180.090134 
	C414.038635,180.090134 414.017517,180.017334 413.742767,180.024612 
	C413.325714,180.383713 413.183411,180.735535 413.041077,181.087341 
	C413.041077,181.087341 413.068848,181.016068 412.721191,180.931152 
	C411.276611,181.957275 410.179718,183.068298 409.082794,184.179321 
	C409.082794,184.179321 409.037323,184.102493 408.708099,183.997864 
	C407.611389,184.651840 406.843933,185.410446 406.076447,186.169067 
	C406.076447,186.169067 406.035370,186.093933 405.716187,185.971954 
	C404.581909,186.551880 403.766785,187.253784 402.951660,187.955688 
	C402.951660,187.955688 402.659393,188.122223 402.094788,187.973938 
	C399.369873,188.822647 397.209534,189.819641 395.049164,190.816620 
z"/>
<path fill="#88B1BC" opacity="1.000000" stroke="none" 
	d="
M769.078735,189.972366 
	C769.078735,189.972366 768.897034,189.641327 769.154907,189.077148 
	C769.579590,186.377777 769.884460,184.243073 769.892029,182.107330 
	C769.985901,155.744370 770.036377,129.381241 770.557983,103.018250 
	C785.302979,103.004265 799.588074,102.990196 813.873108,102.976120 
	C817.364807,104.253525 820.856567,105.530937 824.827881,107.271759 
	C827.568909,108.798248 829.830444,109.861320 832.091919,110.924408 
	C832.091919,110.924408 832.049866,110.993515 832.033081,111.267151 
	C832.373047,111.680557 832.729736,111.820312 833.086426,111.960068 
	C833.086426,111.960060 833.004395,111.955994 832.913330,112.297920 
	C838.501343,121.755928 840.652771,131.504852 838.184326,142.113754 
	C838.124207,142.372269 838.783264,142.798126 839.106812,143.145920 
	C837.444092,148.706818 834.098511,153.113464 829.028442,156.926636 
	C820.880249,159.022659 813.513428,161.462265 805.952026,162.809540 
	C802.083862,163.498779 800.962830,164.719177 801.032288,168.420593 
	C801.166077,175.550186 800.889771,182.687485 800.333862,189.843445 
	C789.615662,189.901001 779.347168,189.936691 769.078735,189.972366 
z"/>
<path fill="#89B1BC" opacity="1.000000" stroke="none" 
	d="
M670.004944,188.905670 
	C670.992065,186.575211 671.860901,184.185684 672.988892,181.925522 
	C676.223938,175.443451 679.564148,169.013809 683.345642,162.153870 
	C689.564575,150.605865 695.307495,139.470932 701.008179,128.314438 
	C701.198120,127.942787 700.960205,127.352547 700.921692,126.864189 
	C700.921692,126.864189 700.981384,126.929405 701.227539,126.895966 
	C701.645874,126.526810 701.818115,126.191086 701.990356,125.855370 
	C704.049744,121.001099 706.109131,116.146820 708.849915,111.077316 
	C711.395813,107.323959 713.260376,103.785812 715.470093,100.208191 
	C716.979858,101.648483 718.401550,102.992401 719.266907,104.630249 
	C724.593445,114.711800 729.794373,124.859711 735.077271,135.344269 
	C736.778259,139.118225 738.291687,142.616760 740.157532,145.915970 
	C741.197205,147.754227 742.823425,149.260742 744.185364,150.916748 
	C744.185364,150.916733 744.101746,150.959305 743.988831,151.294403 
	C747.648193,159.463501 751.403564,167.305801 755.236572,175.109955 
	C755.458008,175.560684 756.311340,175.701004 756.870605,175.985779 
	C758.914795,180.088593 760.958984,184.191391 762.545410,188.801910 
	C760.963745,189.504471 759.839966,189.868286 758.715820,189.869476 
	C730.355530,189.899673 701.995300,189.903915 673.635071,189.848877 
	C672.424438,189.846527 671.214966,189.233963 670.004944,188.905670 
z"/>
<path fill="#F9FFFF" opacity="1.000000" stroke="none" 
	d="
M601.898438,134.039398 
	C601.598755,130.358475 601.133240,126.681847 601.038025,122.995651 
	C600.891724,117.333061 601.061890,111.662971 600.977417,105.997856 
	C600.923950,102.412949 602.604126,100.970810 606.106567,100.977432 
	C629.438599,101.021561 652.770752,101.011848 676.102905,100.983849 
	C679.349609,100.979950 681.037842,102.351097 681.006042,105.706909 
	C680.917542,115.033516 680.870911,124.360527 680.349365,133.679199 
	C679.727234,133.372620 679.489258,133.155350 679.153809,132.549332 
	C679.123230,123.610283 679.085144,115.140991 679.129578,106.672119 
	C679.141418,104.411636 678.811523,102.836502 675.959534,102.842735 
	C652.710938,102.893600 629.461914,102.824265 606.214478,102.998596 
	C605.106262,103.006905 603.074158,104.950989 603.059326,106.015717 
	C602.929932,115.298859 603.162842,124.587067 602.940918,133.916931 
	C602.362000,133.986542 602.130249,134.012970 601.898438,134.039398 
z"/>
<path fill="#E7F1F4" opacity="1.000000" stroke="none" 
	d="
M435.878204,190.041016 
	C435.577820,189.361252 435.015717,188.681870 435.014679,188.001633 
	C434.970917,158.871872 434.977051,129.742020 434.977051,99.156509 
	C437.720764,100.410378 440.276154,100.891663 441.833893,102.401962 
	C451.630432,111.900299 461.205170,121.627487 470.956238,131.612274 
	C471.059265,131.945541 471.015625,131.980652 470.661438,132.086090 
	C468.720459,131.051620 466.956116,130.093079 465.575989,128.742081 
	C457.246521,120.588356 449.013428,112.336205 440.722504,104.142876 
	C439.752441,103.184212 438.625702,102.384125 436.945251,100.991486 
	C436.945251,114.631393 436.910065,127.276108 436.953979,139.920547 
	C437.011810,156.566620 437.131836,173.212494 436.889221,189.910492 
	C436.328308,189.988693 436.103271,190.014847 435.878204,190.041016 
z"/>
<path fill="#FDFDF9" opacity="1.000000" stroke="none" 
	d="
M58.848343,44.756790 
	C58.829418,45.671528 58.900177,47.174171 58.196545,47.785519 
	C37.657402,65.630791 24.924158,88.194893 18.026806,114.239120 
	C16.323055,120.672432 15.259642,127.275322 13.526823,133.897354 
	C12.868026,121.964890 16.322762,110.611961 20.286852,99.549072 
	C27.695744,78.872528 39.973427,61.266125 56.139385,46.394512 
	C56.822857,45.765762 57.758774,45.411434 58.848343,44.756790 
z"/>
<path fill="#FCFFFF" opacity="1.000000" stroke="none" 
	d="
M770.098083,103.018150 
	C770.036377,129.381241 769.985901,155.744370 769.892029,182.107330 
	C769.884460,184.243073 769.579590,186.377777 769.195801,188.892792 
	C768.652954,188.412018 768.042786,187.551483 768.042603,186.690796 
	C768.036682,158.923798 768.089600,131.156784 768.813477,103.197403 
	C769.694824,103.009415 769.896484,103.013786 770.098083,103.018150 
z"/>
<path fill="#FDFDF9" opacity="1.000000" stroke="none" 
	d="
M133.550293,13.081066 
	C130.710571,14.099031 127.483276,15.437079 124.132393,15.923206 
	C111.896179,17.698362 100.242439,21.460388 89.448479,27.240337 
	C79.859161,32.375221 70.917252,38.717953 61.665688,44.489250 
	C61.313831,44.708744 60.712162,44.527779 59.912441,44.323586 
	C65.786964,39.531471 71.726318,34.554379 78.217613,30.450254 
	C91.178810,22.255526 105.659744,17.676680 120.496094,14.291105 
	C124.583969,13.358274 128.896545,13.410154 133.550293,13.081066 
z"/>
<path fill="#FDFDF9" opacity="1.000000" stroke="none" 
	d="
M279.919769,125.578064 
	C278.917297,124.785797 277.577026,123.713768 277.117828,122.345955 
	C272.941772,109.907463 269.434143,97.214561 264.632446,85.028969 
	C262.272125,79.039024 257.539612,73.997879 254.010300,68.444946 
	C253.095215,67.005180 252.668243,65.255165 252.031860,63.255280 
	C257.462311,71.151009 264.127289,78.900993 267.986084,87.859703 
	C273.129852,99.801498 276.091583,112.683159 279.919769,125.578064 
z"/>
<path fill="#FDFDF9" opacity="1.000000" stroke="none" 
	d="
M160.444611,279.919556 
	C163.102432,278.907104 166.140060,277.602753 169.306427,277.083527 
	C189.309235,273.803253 207.405426,266.012207 224.016068,254.529663 
	C225.998291,253.159378 228.253036,252.183350 230.758636,251.035385 
	C221.825714,257.021942 212.981552,263.977234 203.071289,268.691223 
	C193.626236,273.183899 183.124557,275.533356 172.972763,278.422211 
	C169.107391,279.522156 164.922958,279.500885 160.444611,279.919556 
z"/>
<path fill="#F9FFFF" opacity="1.000000" stroke="none" 
	d="
M526.950623,101.886429 
	C527.798157,101.591576 528.645569,101.039642 529.493164,101.039467 
	C550.864502,101.035080 572.235840,101.088669 593.805603,101.834396 
	C593.990112,102.756012 593.976196,102.975296 593.505737,103.090996 
	C583.454468,102.944153 573.859314,102.832008 564.264832,102.874832 
	C551.866028,102.930161 539.467773,103.109299 527.042542,102.897697 
	C526.994080,102.335648 526.972351,102.111038 526.950623,101.886429 
z"/>
<path fill="#DEECF0" opacity="1.000000" stroke="none" 
	d="
M679.177185,133.019226 
	C679.489258,133.155350 679.727234,133.372620 679.966797,133.904358 
	C675.376404,134.436462 670.712524,134.776688 666.043335,135.015472 
	C663.908081,135.124649 661.762573,135.034027 659.283386,135.034027 
	C659.283386,153.593735 659.283386,171.957230 659.283386,190.865280 
	C648.083862,190.865280 637.211365,190.865280 626.128662,190.444351 
	C625.918457,190.023422 625.970215,189.990250 626.434814,189.905502 
	C635.365540,189.824600 643.839783,189.609955 652.294556,189.922379 
	C656.670471,190.084076 658.028442,188.716415 657.956665,184.300354 
	C657.708557,169.032043 657.990479,153.755386 657.774353,138.486099 
	C657.714478,134.259720 659.203613,132.946167 663.249512,133.113052 
	C668.548401,133.331619 673.867065,133.072739 679.177185,133.019226 
z"/>
<path fill="#E9F4F6" opacity="1.000000" stroke="none" 
	d="
M595.164734,133.047577 
	C593.803040,133.704300 592.450012,134.908859 591.078369,134.930420 
	C580.846863,135.091232 570.611755,135.017792 560.213135,135.017792 
	C560.213135,137.143707 560.213135,138.869736 560.213135,141.475906 
	C569.825745,141.475906 579.257385,141.475906 589.666992,141.475906 
	C588.922302,144.983032 588.391113,147.484497 587.421387,149.676804 
	C586.982849,149.367645 586.935608,148.887390 586.985596,148.457596 
	C586.942749,146.456543 586.849915,144.885269 586.736938,142.972183 
	C578.094360,142.972183 569.985413,142.809402 561.888123,143.045120 
	C558.184875,143.152939 557.948669,141.274689 557.978821,138.441086 
	C558.008118,135.677734 558.094849,133.660248 561.850281,133.768021 
	C569.803894,133.996307 577.769592,133.908417 585.728271,133.797043 
	C588.470276,133.758698 591.205811,133.265396 594.249390,132.997437 
	C594.757935,133.025833 594.961304,133.036713 595.164734,133.047577 
z"/>
<path fill="#FDFDF9" opacity="1.000000" stroke="none" 
	d="
M208.959076,27.595209 
	C206.423706,27.246120 203.679581,26.729258 201.058548,25.846804 
	C192.015060,22.802031 183.089844,19.382078 173.966751,16.607519 
	C169.206070,15.159674 164.125870,14.762455 159.098022,13.521353 
	C173.138245,12.789660 186.137222,17.330647 198.965347,22.500572 
	C202.337463,23.859587 205.531128,25.661377 208.959076,27.595209 
z"/>
<path fill="#D9E9EC" opacity="1.000000" stroke="none" 
	d="
M513.137085,101.958344 
	C513.501526,103.762573 513.988342,105.553322 514.188965,107.375580 
	C514.332153,108.676956 514.031128,110.020592 514.030396,111.345428 
	C514.017822,133.171097 514.009827,154.996796 514.031494,176.822449 
	C514.035645,180.966644 514.171448,185.110687 513.749329,189.559875 
	C513.055664,189.808197 512.859192,189.751465 512.728760,189.258301 
	C512.822205,161.751953 512.864807,134.682022 512.839417,107.612167 
	C512.837952,105.997993 512.291443,104.384331 512.139526,102.573624 
	C512.516235,102.135284 512.801758,101.995796 513.137085,101.958344 
z"/>
<path fill="#DEEBEE" opacity="1.000000" stroke="none" 
	d="
M800.783569,189.821579 
	C800.889771,182.687485 801.166077,175.550186 801.032288,168.420593 
	C800.962830,164.719177 802.083862,163.498779 805.952026,162.809540 
	C813.513428,161.462265 820.880249,159.022659 828.708496,157.025681 
	C825.114136,162.602264 818.588196,162.395477 812.909180,163.950851 
	C809.852051,164.788116 806.557068,164.757080 802.888916,165.172195 
	C802.888916,173.447723 802.888916,181.531342 802.168091,189.789581 
	C801.226013,189.916672 801.004822,189.869125 800.783569,189.821579 
z"/>
<path fill="#FDFDF9" opacity="1.000000" stroke="none" 
	d="
M86.047638,266.398743 
	C87.341011,266.262024 88.898407,266.179565 90.228004,266.690216 
	C104.001854,271.980347 117.683235,277.566681 132.724991,278.179474 
	C133.095062,278.194519 133.441986,278.778168 133.896881,279.471619 
	C121.552895,280.000275 109.925110,276.392487 98.484627,272.041412 
	C94.320488,270.457703 90.294785,268.509949 86.047638,266.398743 
z"/>
<path fill="#F9FFFF" opacity="1.000000" stroke="none" 
	d="
M669.621948,189.082611 
	C671.214966,189.233963 672.424438,189.846527 673.635071,189.848877 
	C701.995300,189.903915 730.355530,189.899673 758.715820,189.869476 
	C759.839966,189.868286 760.963745,189.504471 762.471191,189.171890 
	C762.078918,189.689453 761.304993,190.915192 760.527039,190.917725 
	C730.743591,191.015030 700.959656,191.011200 671.176147,190.927612 
	C670.528870,190.925797 669.884583,189.839813 669.621948,189.082611 
z"/>
<path fill="#E3F0F3" opacity="1.000000" stroke="none" 
	d="
M526.596680,102.052032 
	C526.972351,102.111038 526.994080,102.335648 527.062500,103.343689 
	C527.077698,132.761002 527.046326,161.394882 526.999512,190.041245 
	C526.984131,190.053726 526.944458,190.051880 526.944458,190.051880 
	C526.629822,188.390198 526.045044,186.729141 526.041077,185.066727 
	C525.982727,160.535263 525.993042,136.003632 526.012634,111.472046 
	C526.015076,108.387184 526.162476,105.302437 526.596680,102.052032 
z"/>
<path fill="#E3F0F3" opacity="1.000000" stroke="none" 
	d="
M339.635986,127.028793 
	C339.300720,130.414520 338.600464,133.954056 337.928558,137.498947 
	C335.782379,148.821640 337.827942,159.459534 343.148773,169.574203 
	C343.600800,170.433517 343.805481,171.422943 344.025696,172.730927 
	C341.276733,167.233078 337.833618,161.571396 336.167511,155.427811 
	C333.798187,146.691055 335.014038,137.770233 338.005432,129.192276 
	C338.259674,128.463226 338.849854,127.851341 339.635986,127.028793 
z"/>
<path fill="#FDFDF9" opacity="1.000000" stroke="none" 
	d="
M266.403625,207.956757 
	C267.056702,204.856689 268.076538,201.613174 269.029388,198.350113 
	C271.966980,188.289810 274.866638,178.218414 277.819641,168.162659 
	C278.123962,167.126373 278.687347,166.166168 279.489990,165.087738 
	C277.352448,175.068314 275.084930,185.197037 272.252594,195.165283 
	C271.007660,199.546707 268.612579,203.601334 266.403625,207.956757 
z"/>
<path fill="#F9FFFF" opacity="1.000000" stroke="none" 
	d="
M560.041626,151.111877 
	C560.041626,152.918945 560.041626,154.726013 560.041626,157.132889 
	C571.271973,157.132889 582.438904,157.132889 593.801819,157.831787 
	C593.986084,158.746948 593.974365,158.963196 593.505737,159.078857 
	C581.508911,158.978271 569.968933,158.978271 557.252747,158.978271 
	C558.368835,155.032349 559.135132,152.323029 559.938171,149.988098 
	C559.997192,150.612289 560.019409,150.862091 560.041626,151.111877 
z"/>
<path fill="#DCEBEF" opacity="1.000000" stroke="none" 
	d="
M770.557983,103.018250 
	C769.896484,103.013786 769.694824,103.009415 769.191895,102.977829 
	C770.387573,102.285965 771.875122,101.071304 773.382996,101.045601 
	C783.444885,100.874107 793.512634,100.858238 803.575134,101.011253 
	C806.945557,101.062508 810.306274,101.754822 813.772217,102.565109 
	C799.588074,102.990196 785.302979,103.004265 770.557983,103.018250 
z"/>
<path fill="#FDFDF9" opacity="1.000000" stroke="none" 
	d="
M13.081374,157.458145 
	C14.083670,160.590546 15.029390,164.171494 15.943646,167.760483 
	C18.042379,175.999222 20.147604,184.236435 22.196199,192.487671 
	C22.586275,194.058807 22.727839,195.691666 22.969265,197.715393 
	C19.968964,188.786957 16.732424,179.508560 14.119768,170.057678 
	C13.053625,166.201080 13.339658,161.970688 13.081374,157.458145 
z"/>
<path fill="#F4FDFE" opacity="1.000000" stroke="none" 
	d="
M602.109253,134.429199 
	C602.130249,134.012970 602.362000,133.986542 603.382324,133.903412 
	C611.396667,133.846725 618.622375,133.846725 625.970215,133.846725 
	C625.970215,153.177246 625.970215,171.583755 625.970215,189.990250 
	C625.970215,189.990250 625.918457,190.023422 625.922729,190.053864 
	C625.618408,188.575333 625.047241,187.067383 625.041382,185.557266 
	C624.977234,168.950775 625.001099,152.343948 625.001099,134.819000 
	C617.411316,134.819000 609.865662,134.819000 602.109253,134.429199 
z"/>
<path fill="#F9FFFF" opacity="1.000000" stroke="none" 
	d="
M512.662781,189.694733 
	C512.859192,189.751465 513.055664,189.808197 513.551208,189.933487 
	C513.238464,190.334198 512.626587,190.957001 512.015015,190.956665 
	C486.782928,190.942978 461.550873,190.873322 436.098511,190.425873 
	C436.103271,190.014847 436.328308,189.988693 437.337524,189.918976 
	C462.968719,189.815201 487.815735,189.754959 512.662781,189.694733 
z"/>
<path fill="#FDFDF9" opacity="1.000000" stroke="none" 
	d="
M251.073715,61.605453 
	C250.810684,61.926479 250.363464,62.029335 250.174149,61.853893 
	C241.464066,53.782280 232.776520,45.686352 224.076981,37.238708 
	C228.426987,40.135593 233.083481,43.063160 237.070236,46.720741 
	C242.007034,51.249916 246.388474,56.384453 251.073715,61.605453 
z"/>
<path fill="#E7F1F4" opacity="1.000000" stroke="none" 
	d="
M424.986816,160.997375 
	C428.717072,147.348099 426.797394,134.290268 420.971069,121.270615 
	C425.718994,125.931229 426.819763,132.266052 428.139893,138.710693 
	C429.686340,146.259903 428.017975,153.401093 426.209290,160.846008 
	C425.370575,161.012314 425.178711,161.004852 424.986816,160.997375 
z"/>
<path fill="#E3F0F3" opacity="1.000000" stroke="none" 
	d="
M735.037109,134.985535 
	C729.794373,124.859711 724.593445,114.711800 719.266907,104.630249 
	C718.401550,102.992401 716.979858,101.648483 715.427979,99.938141 
	C715.026794,99.526909 715.013000,99.346252 714.999146,99.165604 
	C716.659729,99.947708 719.175293,100.286797 719.846313,101.581680 
	C725.430725,112.358284 730.675049,123.311104 735.806396,134.590607 
	C735.406189,134.975525 735.221619,134.980530 735.037109,134.985535 
z"/>
<path fill="#E3F0F3" opacity="1.000000" stroke="none" 
	d="
M700.593628,127.010803 
	C700.960205,127.352547 701.198120,127.942787 701.008179,128.314438 
	C695.307495,139.470932 689.564575,150.605865 683.514282,161.832062 
	C688.888733,150.332443 694.577148,138.744934 700.593628,127.010803 
z"/>
<path fill="#E9F4F6" opacity="1.000000" stroke="none" 
	d="
M394.999115,102.833374 
	C382.921143,100.649544 371.114288,101.364937 359.295288,106.036194 
	C364.474548,103.949593 369.919281,100.973305 375.650085,100.243324 
	C381.850922,99.453484 388.318787,100.759972 394.842651,101.755051 
	C395.015137,102.357956 394.999115,102.833374 394.999115,102.833374 
z"/>
<path fill="#F9FFFF" opacity="1.000000" stroke="none" 
	d="
M594.848328,190.005249 
	C594.236633,190.336075 593.624939,190.956070 593.013306,190.955948 
	C571.125549,190.951233 549.237793,190.888580 527.147217,190.442932 
	C526.944458,190.051880 526.984131,190.053726 527.462769,189.969116 
	C549.856567,189.829010 571.771667,189.773514 593.975220,189.797668 
	C594.458618,189.919968 594.653503,189.962601 594.848328,190.005249 
z"/>
<path fill="#FDFDF9" opacity="1.000000" stroke="none" 
	d="
M280.500977,160.828217 
	C279.781067,160.523087 279.129181,159.988861 279.132996,159.459351 
	C279.204773,149.474106 279.354095,139.489410 279.805634,129.222198 
	C280.416840,131.101151 280.945465,133.260849 280.960846,135.424179 
	C281.020569,143.815933 280.917023,152.208847 280.500977,160.828217 
z"/>
<path fill="#F9FFFF" opacity="1.000000" stroke="none" 
	d="
M512.912170,101.575500 
	C512.801758,101.995796 512.516235,102.135284 511.672119,102.607040 
	C501.092743,103.026199 491.121826,103.215126 481.100189,103.023773 
	C481.016083,102.389923 480.982697,102.136353 480.949310,101.882782 
	C483.115021,101.589058 485.279541,101.054695 487.446625,101.044174 
	C495.859711,101.003311 504.273651,101.128967 512.912170,101.575500 
z"/>
<path fill="#E9F4F6" opacity="1.000000" stroke="none" 
	d="
M839.462646,142.924438 
	C838.783264,142.798126 838.124207,142.372269 838.184326,142.113754 
	C840.652771,131.504852 838.501343,121.755928 832.947205,112.274750 
	C840.236450,119.083748 841.413818,128.072205 840.769165,137.574097 
	C840.652283,139.297287 840.145325,140.994019 839.462646,142.924438 
z"/>
<path fill="#FCFFFF" opacity="1.000000" stroke="none" 
	d="
M560.505005,151.059326 
	C560.019409,150.862091 559.997192,150.612289 560.306030,149.809845 
	C568.735352,149.241867 576.833435,149.226532 584.958618,149.435608 
	C584.985657,149.660034 585.049072,150.107681 585.049072,150.107681 
	C580.783081,150.405334 576.520996,150.803589 572.249939,150.970428 
	C568.494690,151.117096 564.729309,151.004730 560.505005,151.059326 
z"/>
<path fill="#FDFDF9" opacity="1.000000" stroke="none" 
	d="
M232.394012,250.072189 
	C234.008026,247.614014 235.756119,244.881699 237.982376,242.620056 
	C241.286346,239.263550 244.928909,236.240356 248.781006,233.060303 
	C243.670456,238.699753 238.206223,244.354172 232.394012,250.072189 
z"/>
<path fill="#E3F0F3" opacity="1.000000" stroke="none" 
	d="
M756.937988,175.612564 
	C756.311340,175.701004 755.458008,175.560684 755.236572,175.109955 
	C751.403564,167.305801 747.648193,159.463501 743.979126,151.248520 
	C748.067017,158.270767 752.055664,165.671860 756.029724,173.080780 
	C756.402100,173.775009 756.682312,174.518661 756.937988,175.612564 
z"/>
<path fill="#E7F1F4" opacity="1.000000" stroke="none" 
	d="
M480.559265,102.095215 
	C480.982697,102.136353 481.016083,102.389923 481.135162,103.452774 
	C481.177765,116.850105 481.134674,129.438171 480.777313,142.031799 
	C480.254364,142.055786 480.045624,142.074188 479.584106,141.905701 
	C479.227478,141.140823 479.123596,140.562866 479.034821,139.963806 
	C479.049927,139.942719 479.087952,139.907440 479.087952,139.907440 
	C479.384552,138.426651 479.921417,136.948792 479.939453,135.464615 
	C480.073914,124.412994 480.105438,113.360130 480.559265,102.095215 
z"/>
<path fill="#D9E9EC" opacity="1.000000" stroke="none" 
	d="
M595.035400,189.640503 
	C594.653503,189.962601 594.458618,189.919968 594.047852,189.359711 
	C593.875488,178.954559 593.919006,169.067017 593.962585,159.179459 
	C593.974365,158.963196 593.986084,158.746948 594.026123,158.207062 
	C594.718323,158.890717 595.941345,159.888611 595.958496,160.906784 
	C596.108093,169.801010 596.056763,178.698959 596.004883,187.595459 
	C596.001648,188.157059 595.494934,188.715714 595.035400,189.640503 
z"/>
<path fill="#FDFDF9" opacity="1.000000" stroke="none" 
	d="
M137.171036,280.502472 
	C143.128052,279.915619 149.311981,279.701721 155.778198,279.806000 
	C149.839630,280.374603 143.618790,280.625031 137.171036,280.502472 
z"/>
<path fill="#FDFDF9" opacity="1.000000" stroke="none" 
	d="
M156.828827,12.497895 
	C150.871643,13.084623 144.687607,13.298339 138.221619,13.193506 
	C144.160446,12.624932 150.381210,12.374907 156.828827,12.497895 
z"/>
<path fill="#D6E6EA" opacity="1.000000" stroke="none" 
	d="
M595.521606,132.861908 
	C594.961304,133.036713 594.757935,133.025833 594.238342,132.530930 
	C593.935486,122.429474 593.948853,112.812035 593.962219,103.194588 
	C593.976196,102.975296 593.990112,102.756012 594.032349,102.208389 
	C594.617981,103.526863 595.618164,105.162979 595.658325,106.822296 
	C595.866516,115.437027 595.829834,124.057671 595.521606,132.861908 
z"/>
<path fill="#FDFDF9" opacity="1.000000" stroke="none" 
	d="
M223.972488,36.608196 
	C219.113724,34.149551 214.114761,31.369583 209.090881,28.237144 
	C213.988083,30.685408 218.910187,33.486141 223.972488,36.608196 
z"/>
<path fill="#F9FFFF" opacity="1.000000" stroke="none" 
	d="
M800.333862,189.843445 
	C801.004822,189.869125 801.226013,189.916672 801.784668,190.000610 
	C801.450806,190.356750 800.779541,190.954559 800.108276,190.954620 
	C789.853882,190.955658 779.599426,190.878632 769.211914,190.396088 
	C779.347168,189.936691 789.615662,189.901001 800.333862,189.843445 
z"/>
<path fill="#DCEBEF" opacity="1.000000" stroke="none" 
	d="
M735.077332,135.344254 
	C735.221619,134.980530 735.406189,134.975525 735.867493,134.961380 
	C738.771973,140.030167 741.399658,145.108093 744.106384,150.551392 
	C742.823425,149.260742 741.197205,147.754227 740.157532,145.915970 
	C738.291687,142.616760 736.778259,139.118225 735.077332,135.344254 
z"/>
<path fill="#FDFDF9" opacity="1.000000" stroke="none" 
	d="
M12.500174,141.168182 
	C13.083993,145.462891 13.296642,149.981293 13.192739,154.779724 
	C12.627127,150.503799 12.378066,145.947845 12.500174,141.168182 
z"/>
<path fill="#FDFDF9" opacity="1.000000" stroke="none" 
	d="
M46.941574,236.413177 
	C50.231079,239.178772 53.573013,242.292938 56.925125,245.759460 
	C53.621540,242.995132 50.307777,239.878433 46.941574,236.413177 
z"/>
<path fill="#FDFDF9" opacity="1.000000" stroke="none" 
	d="
M23.941668,201.434814 
	C26.245966,205.152985 28.604994,209.240570 30.948837,213.718170 
	C28.621233,210.006851 26.308815,205.905563 23.941668,201.434814 
z"/>
<path fill="#FDFDF9" opacity="1.000000" stroke="none" 
	d="
M74.031738,259.392944 
	C77.887489,261.181946 81.885155,263.295410 85.908585,265.761780 
	C82.014114,263.982239 78.093880,261.849854 74.031738,259.392944 
z"/>
<path fill="#FDFDF9" opacity="1.000000" stroke="none" 
	d="
M30.942982,214.428009 
	C33.248116,217.492401 35.607155,220.920898 37.948967,224.730026 
	C35.620121,221.671143 33.308502,218.231644 30.942982,214.428009 
z"/>
<path fill="#E7F1F4" opacity="1.000000" stroke="none" 
	d="
M714.640381,99.171005 
	C715.013000,99.346252 715.026794,99.526909 715.082764,99.977623 
	C713.260376,103.785812 711.395813,107.323959 709.177856,110.926971 
	C710.643433,107.053368 712.462524,103.114891 714.640381,99.171005 
z"/>
<path fill="#E3F0F3" opacity="1.000000" stroke="none" 
	d="
M424.739746,161.240448 
	C425.178711,161.004852 425.370575,161.012314 425.849915,161.036652 
	C424.337616,164.980698 422.537781,168.907837 420.409424,172.979065 
	C421.551483,169.243271 423.022095,165.363388 424.739746,161.240448 
z"/>
<path fill="#E3F0F3" opacity="1.000000" stroke="none" 
	d="
M362.058899,188.420227 
	C366.172272,189.087677 370.442230,190.101822 374.822266,191.457825 
	C370.693420,190.788757 366.454468,189.777847 362.058899,188.420227 
z"/>
<path fill="#E9F4F6" opacity="1.000000" stroke="none" 
	d="
M352.567139,109.900528 
	C350.455078,112.579086 347.998718,115.328735 345.184570,117.994080 
	C347.292175,115.263718 349.757507,112.617661 352.567139,109.900528 
z"/>
<path fill="#FDFDF9" opacity="1.000000" stroke="none" 
	d="
M37.940388,225.419037 
	C40.102798,227.634796 42.318604,230.203430 44.324402,233.086975 
	C42.074192,230.858536 40.033985,228.315216 37.940388,225.419037 
z"/>
<path fill="#FDFDF9" opacity="1.000000" stroke="none" 
	d="
M57.021317,246.378906 
	C59.231663,247.844208 61.572311,249.621017 63.924000,251.755051 
	C61.673897,250.304993 59.412758,248.497711 57.021317,246.378906 
z"/>
<path fill="#E9F4F6" opacity="1.000000" stroke="none" 
	d="
M344.604675,118.024956 
	C343.553925,120.563667 342.178467,123.233078 340.465454,125.941879 
	C341.511993,123.372726 342.895996,120.764191 344.604675,118.024956 
z"/>
<path fill="#E3F0F3" opacity="1.000000" stroke="none" 
	d="
M355.017761,184.404129 
	C357.265106,185.201324 359.650116,186.325790 361.973083,187.816391 
	C359.659149,187.032150 357.407288,185.881775 355.017761,184.404129 
z"/>
<path fill="#E9F4F6" opacity="1.000000" stroke="none" 
	d="
M831.964722,110.595932 
	C829.830444,109.861320 827.568909,108.798248 825.169434,107.427521 
	C827.300110,108.169075 829.568787,109.218269 831.964722,110.595932 
z"/>
<path fill="#FDFDF9" opacity="1.000000" stroke="none" 
	d="
M262.392273,214.967133 
	C263.176941,212.779419 264.286652,210.450043 265.754547,208.092468 
	C264.980957,210.318008 263.849152,212.571732 262.392273,214.967133 
z"/>
<path fill="#FDFDF9" opacity="1.000000" stroke="none" 
	d="
M252.366440,229.993927 
	C253.159622,228.119278 254.273209,226.103592 255.760254,224.066406 
	C254.984772,225.980896 253.835815,227.916885 252.366440,229.993927 
z"/>
<path fill="#E7F1F4" opacity="1.000000" stroke="none" 
	d="
M419.099182,117.578789 
	C417.724396,116.481773 416.272827,115.050903 414.952393,113.258751 
	C416.396515,114.346626 417.709473,115.795776 419.099182,117.578789 
z"/>
<path fill="#E3F0F3" opacity="1.000000" stroke="none" 
	d="
M395.423340,190.867844 
	C397.209534,189.819641 399.369873,188.822647 401.932922,187.928162 
	C400.156281,188.993439 397.976868,189.956253 395.423340,190.867844 
z"/>
<path fill="#E3F0F3" opacity="1.000000" stroke="none" 
	d="
M416.393616,177.992508 
	C417.202393,176.395767 418.323242,174.671310 419.813965,173.018997 
	C419.024445,174.682358 417.865082,176.273560 416.393616,177.992508 
z"/>
<path fill="#E7F1F4" opacity="1.000000" stroke="none" 
	d="
M395.356079,103.029404 
	C394.999115,102.833374 395.015137,102.357956 395.029633,102.120560 
	C396.992737,102.365814 398.941315,102.848473 401.113464,103.650391 
	C399.462372,103.721581 397.587738,103.473503 395.356079,103.029404 
z"/>
<path fill="#E9F4F6" opacity="1.000000" stroke="none" 
	d="
M358.584412,105.906105 
	C357.501251,106.944710 356.071899,108.053696 354.276184,109.047302 
	C355.352631,107.946777 356.795410,106.961632 358.584412,105.906105 
z"/>
<path fill="#E3F0F3" opacity="1.000000" stroke="none" 
	d="
M409.412903,184.105743 
	C410.179718,183.068298 411.276611,181.957275 412.740601,180.964111 
	C411.986145,182.065369 410.864594,183.048782 409.412903,184.105743 
z"/>
<path fill="#E7F1F4" opacity="1.000000" stroke="none" 
	d="
M414.982208,112.604324 
	C413.732208,112.138702 412.362854,111.359802 411.031830,110.204880 
	C412.334381,110.649590 413.598633,111.470322 414.982208,112.604324 
z"/>
<path fill="#FDFDF9" opacity="1.000000" stroke="none" 
	d="
M64.019409,252.377502 
	C65.227577,252.836121 66.564514,253.604553 67.917908,254.743210 
	C66.672302,254.304733 65.410248,253.496017 64.019409,252.377502 
z"/>
<path fill="#E3F0F3" opacity="1.000000" stroke="none" 
	d="
M352.008545,182.393341 
	C352.923950,182.527344 353.958252,182.969925 354.961212,183.791382 
	C353.995728,183.680801 353.061615,183.191376 352.008545,182.393341 
z"/>
<path fill="#FDFDF9" opacity="1.000000" stroke="none" 
	d="
M258.351624,221.003326 
	C258.492065,220.131546 258.939331,219.131302 259.749390,218.097351 
	C259.627625,219.000748 259.143066,219.937820 258.351624,221.003326 
z"/>
<path fill="#FDFDF9" opacity="1.000000" stroke="none" 
	d="
M260.372437,217.983246 
	C260.508087,217.115387 260.949127,216.122314 261.751343,215.096588 
	C261.634247,215.995300 261.156036,216.926666 260.372437,217.983246 
z"/>
<path fill="#FDFDF9" opacity="1.000000" stroke="none" 
	d="
M71.015076,257.373749 
	C71.883728,257.509125 72.877632,257.949951 73.903229,258.752380 
	C73.003395,258.635712 72.071869,258.157440 71.015076,257.373749 
z"/>
<path fill="#FDFDF9" opacity="1.000000" stroke="none" 
	d="
M68.015259,255.373749 
	C68.883415,255.509277 69.877129,255.950104 70.902946,256.752441 
	C70.003639,256.635620 69.072227,256.157349 68.015259,255.373749 
z"/>
<path fill="#E7F1F4" opacity="1.000000" stroke="none" 
	d="
M405.141602,105.679703 
	C404.200409,105.591278 403.064941,105.209015 401.942200,104.436096 
	C402.952362,104.492249 403.949890,104.939056 405.141602,105.679703 
z"/>
<path fill="#E3F0F3" opacity="1.000000" stroke="none" 
	d="
M343.899536,173.401001 
	C344.605682,173.841217 345.381989,174.605606 346.037720,175.738800 
	C345.267975,175.313446 344.618805,174.519302 343.899536,173.401001 
z"/>
<path fill="#E7F1F4" opacity="1.000000" stroke="none" 
	d="
M421.100220,120.599548 
	C420.402893,120.155029 419.632660,119.387001 418.972961,118.246872 
	C419.731445,118.675186 420.379395,119.475609 421.100220,120.599548 
z"/>
<path fill="#E7F1F4" opacity="1.000000" stroke="none" 
	d="
M409.988831,108.612686 
	C409.050903,108.477188 407.997742,108.032570 407.016663,107.206543 
	C408.017029,107.317947 408.945312,107.810760 409.988831,108.612686 
z"/>
<path fill="#E3F0F3" opacity="1.000000" stroke="none" 
	d="
M403.292725,187.988754 
	C403.766785,187.253784 404.581909,186.551880 405.758881,185.968567 
	C405.291718,186.732056 404.462738,187.376938 403.292725,187.988754 
z"/>
<path fill="#E3F0F3" opacity="1.000000" stroke="none" 
	d="
M406.401062,186.098755 
	C406.843933,185.410446 407.611389,184.651840 408.750916,183.985245 
	C408.323853,184.727646 407.524780,185.378036 406.401062,186.098755 
z"/>
<path fill="#FDFDF9" opacity="1.000000" stroke="none" 
	d="
M44.749073,234.110718 
	C45.381073,234.364319 46.167690,234.844849 46.943863,235.717117 
	C46.256844,235.518433 45.580269,234.928040 44.749073,234.110718 
z"/>
<path fill="#D9E9EC" opacity="1.000000" stroke="none" 
	d="
M585.375977,150.061172 
	C585.049072,150.107681 584.985657,149.660034 585.286377,149.345215 
	C586.036621,148.982727 586.486145,148.935059 586.935608,148.887390 
	C586.935608,148.887390 586.982849,149.367645 586.994934,149.608597 
	C586.572327,149.904587 586.137573,149.959625 585.375977,150.061172 
z"/>
<path fill="#E7F1F4" opacity="1.000000" stroke="none" 
	d="
M407.020782,106.687531 
	C406.736786,106.849678 406.385651,106.745079 406.017700,106.344002 
	C406.318481,106.171944 406.636078,106.296364 407.020782,106.687531 
z"/>
<path fill="#E9F4F6" opacity="1.000000" stroke="none" 
	d="
M353.695740,108.978897 
	C353.819031,109.265762 353.676788,109.618584 353.222717,109.967590 
	C353.083984,109.657478 353.257080,109.351173 353.695740,108.978897 
z"/>
<path fill="#E7F1F4" opacity="1.000000" stroke="none" 
	d="
M411.024750,109.698380 
	C410.736786,109.820633 410.381195,109.677193 410.032074,109.223236 
	C410.344727,109.086044 410.650940,109.259361 411.024750,109.698380 
z"/>
<path fill="#E3F0F3" opacity="1.000000" stroke="none" 
	d="
M701.727295,125.952362 
	C701.818115,126.191086 701.645874,126.526810 701.192505,126.922958 
	C701.095703,126.672050 701.279968,126.360710 701.727295,125.952362 
z"/>
<path fill="#E3F0F3" opacity="1.000000" stroke="none" 
	d="
M347.976135,178.304413 
	C348.260742,178.182968 348.611877,178.327744 348.962952,178.781738 
	C348.656158,178.917526 348.349457,178.744064 347.976135,178.304413 
z"/>
<path fill="#E7F1F4" opacity="1.000000" stroke="none" 
	d="
M478.089386,138.904602 
	C478.376282,139.073853 478.663208,139.243103 479.019043,139.659897 
	C479.087952,139.907440 479.049927,139.942719 478.737244,139.970703 
	C478.288544,139.660202 478.152527,139.321747 478.034424,138.963287 
	C478.052277,138.943298 478.089386,138.904602 478.089386,138.904602 
z"/>
<path fill="#E7F1F4" opacity="1.000000" stroke="none" 
	d="
M477.090607,137.903412 
	C477.377411,138.072327 477.664246,138.241257 478.020203,138.657394 
	C478.089386,138.904602 478.052277,138.943298 477.736206,138.972443 
	C477.285645,138.662170 477.151123,138.322754 477.034729,137.963013 
	C477.052856,137.942688 477.090607,137.903412 477.090607,137.903412 
z"/>
<path fill="#E7F1F4" opacity="1.000000" stroke="none" 
	d="
M476.090942,136.903107 
	C476.377686,137.071899 476.664459,137.240692 477.020905,137.656448 
	C477.090607,137.903412 477.052856,137.942688 476.736145,137.972733 
	C476.285187,137.662949 476.150909,137.323120 476.034851,136.962921 
	C476.053040,136.942520 476.090942,136.903107 476.090942,136.903107 
z"/>
<path fill="#E7F1F4" opacity="1.000000" stroke="none" 
	d="
M475.091125,135.902893 
	C475.377808,136.071732 475.664490,136.240555 476.021057,136.656250 
	C476.090942,136.903107 476.053040,136.942520 475.736023,136.972870 
	C475.284943,136.663193 475.150879,136.323151 475.035004,135.962708 
	C475.053192,135.942291 475.091125,135.902893 475.091125,135.902893 
z"/>
<path fill="#E7F1F4" opacity="1.000000" stroke="none" 
	d="
M474.091522,134.902451 
	C474.377991,135.071487 474.664459,135.240509 475.021027,135.656219 
	C475.091125,135.902893 475.053192,135.942291 474.735779,135.973053 
	C474.284668,135.663422 474.150970,135.323044 474.035400,134.962250 
	C474.053558,134.941803 474.091522,134.902451 474.091522,134.902451 
z"/>
<path fill="#E7F1F4" opacity="1.000000" stroke="none" 
	d="
M473.092194,133.901825 
	C473.378265,134.071152 473.664337,134.240463 474.020966,134.656128 
	C474.091522,134.902451 474.053558,134.941803 473.735962,134.973572 
	C473.284637,134.664444 473.150909,134.323532 473.035583,133.962097 
	C473.053986,133.941589 473.092194,133.901825 473.092194,133.901825 
z"/>
<path fill="#E7F1F4" opacity="1.000000" stroke="none" 
	d="
M472.093109,132.900604 
	C472.379333,133.069977 472.665527,133.239349 473.021973,133.655273 
	C473.092194,133.901825 473.053986,133.941589 472.733978,133.975906 
	C472.281586,133.667847 472.149200,133.325485 472.035461,132.962097 
	C472.054138,132.941101 472.093109,132.900604 472.093109,132.900604 
z"/>
<path fill="#E3F0F3" opacity="1.000000" stroke="none" 
	d="
M345.975983,176.307983 
	C346.266418,176.182510 346.620087,176.323502 346.967041,176.776489 
	C346.653290,176.917114 346.346252,176.745773 345.975983,176.307983 
z"/>
<path fill="#E3F0F3" opacity="1.000000" stroke="none" 
	d="
M346.975769,177.307281 
	C347.263184,177.183380 347.614777,177.326172 347.964294,177.779785 
	C347.654816,177.918411 347.347382,177.746201 346.975769,177.307281 
z"/>
<path fill="#FDFDF9" opacity="1.000000" stroke="none" 
	d="
M257.298950,223.043762 
	C257.102539,222.816483 257.239014,222.534027 257.650818,222.156265 
	C257.749268,222.332108 257.651184,222.641312 257.298950,223.043762 
z"/>
<path fill="#E3F0F3" opacity="1.000000" stroke="none" 
	d="
M415.303619,179.024612 
	C415.181915,178.738434 415.326263,178.385513 415.780212,178.035522 
	C415.916443,178.344910 415.743042,178.651382 415.303619,179.024612 
z"/>
<path fill="#E3F0F3" opacity="1.000000" stroke="none" 
	d="
M348.975891,179.304199 
	C349.260315,179.182800 349.611603,179.327499 349.962921,179.781570 
	C349.656219,179.917404 349.349487,179.743851 348.975891,179.304199 
z"/>
<path fill="#E3F0F3" opacity="1.000000" stroke="none" 
	d="
M414.304810,180.023483 
	C414.183441,179.739838 414.328217,179.389542 414.782166,179.037888 
	C414.917847,179.343307 414.744385,179.650070 414.304810,180.023483 
z"/>
<path fill="#E3F0F3" opacity="1.000000" stroke="none" 
	d="
M349.975616,180.303955 
	C350.262329,180.181763 350.615662,180.325409 350.965088,180.779053 
	C350.654846,180.915939 350.348541,180.742874 349.975616,180.303955 
z"/>
<path fill="#E3F0F3" opacity="1.000000" stroke="none" 
	d="
M413.307739,181.023651 
	C413.183411,180.735535 413.325714,180.383713 413.779205,180.035034 
	C413.918396,180.345459 413.746368,180.652710 413.307739,181.023651 
z"/>
<path fill="#E3F0F3" opacity="1.000000" stroke="none" 
	d="
M350.974487,181.306717 
	C351.266052,181.181458 351.621582,181.322601 351.968201,181.775665 
	C351.652344,181.916092 351.345398,181.744614 350.974487,181.306717 
z"/>
<path fill="#E7F1F4" opacity="1.000000" stroke="none" 
	d="
M471.078430,131.925171 
	C471.382568,132.073242 471.667480,132.241669 472.022766,132.655365 
	C472.093109,132.900604 472.054138,132.941101 471.732330,132.978943 
	C471.278900,132.671417 471.147247,132.326035 471.015625,131.980652 
	C471.015625,131.980652 471.059265,131.945541 471.078430,131.925171 
z"/>
<path fill="#FDFDF9" opacity="1.000000" stroke="none" 
	d="
M23.109509,200.280289 
	C23.453722,200.149216 23.669882,200.367386 23.870888,200.893661 
	C23.648787,200.927338 23.357361,200.736588 23.109509,200.280289 
z"/>
<path fill="#E9F4F6" opacity="1.000000" stroke="none" 
	d="
M833.021973,111.694466 
	C832.729736,111.820312 832.373047,111.680557 832.027832,111.227066 
	C832.345459,111.085167 832.651489,111.257011 833.021973,111.694466 
z"/>
<path fill="#8AB1BC" opacity="1.000000" stroke="none" 
	d="
M146.744354,97.624512 
	C150.436996,108.373451 147.324295,117.320244 140.511063,125.135803 
	C138.609360,127.317276 135.398636,128.341492 132.827133,129.958206 
	C125.089104,134.823135 117.441734,139.840012 109.569115,144.475082 
	C108.342003,145.197556 106.121735,144.233170 104.361053,144.050873 
	C100.572350,149.658112 95.186859,150.269394 88.753906,150.803833 
	C80.007294,151.530472 75.331436,146.084213 70.159805,141.406357 
	C67.588196,139.080261 65.764168,135.043930 65.204926,131.526428 
	C62.456856,114.241600 69.391510,100.150932 81.423866,88.488518 
	C90.932045,79.272659 101.881943,71.960632 114.972740,68.597244 
	C120.779274,67.105392 126.484276,71.319023 129.272049,76.580139 
	C131.667343,81.100578 135.954758,84.612038 139.368362,88.601440 
	C141.812057,91.457336 144.194397,94.365753 146.744354,97.624512 
M127.609024,110.114731 
	C132.860825,103.925690 132.860916,103.925613 127.418144,97.731766 
	C127.198189,97.481453 126.936943,97.259300 126.756287,96.983795 
	C124.126671,92.973732 120.316833,92.453125 116.357018,94.135254 
	C112.559006,95.748650 108.637848,97.555153 105.512169,100.164757 
	C99.547058,105.145004 93.727020,110.419212 88.593727,116.231148 
	C85.440186,119.801605 83.672127,124.595779 81.281944,128.840469 
	C81.675743,129.349503 82.069534,129.858521 82.463326,130.367554 
	C85.433495,129.799942 88.557663,129.639862 91.344414,128.586853 
	C99.125931,125.646515 106.919418,122.652184 114.408234,119.054756 
	C118.957703,116.869324 122.951347,113.526833 127.609024,110.114731 
z"/>
<path fill="#8AB2BC" opacity="1.000000" stroke="none" 
	d="
M194.948898,117.253754 
	C194.317612,118.165009 193.811859,118.962677 193.878632,119.709114 
	C194.302811,124.449730 194.027802,128.764679 189.436554,129.825302 
	C189.436554,132.723312 189.850052,134.983978 189.348999,137.019531 
	C188.357544,141.047379 186.980637,144.996155 185.512299,148.882889 
	C184.941589,150.393585 183.647385,152.833496 182.761459,152.799515 
	C179.983383,152.692917 175.401794,152.311691 174.818314,150.779999 
	C172.714905,145.258057 169.928787,138.758316 171.130173,133.476196 
	C173.540680,122.877930 178.400742,112.835693 182.269455,102.571388 
	C182.842651,101.050613 183.523132,99.570290 184.817429,96.494720 
	C178.816269,96.758217 173.773026,96.446587 168.956100,97.346382 
	C164.458069,98.186607 162.212234,96.591896 161.099533,92.697350 
	C160.194092,89.528191 159.294739,86.283348 159.045685,83.022202 
	C158.815033,80.002312 160.139114,78.443565 163.921097,78.583031 
	C171.367874,78.857658 178.855362,78.426041 186.308746,77.990891 
	C191.717255,77.675140 195.558731,74.700027 198.082962,69.918198 
	C198.930420,68.312759 199.883102,66.701393 201.080963,65.353325 
	C205.580704,60.289341 208.874954,60.744370 211.881714,66.708946 
	C215.337769,73.564789 215.335495,73.552994 222.691010,72.139603 
	C227.749161,71.167671 232.810501,70.211098 237.878067,69.289787 
	C243.045685,68.350296 251.228607,71.638832 252.849030,76.119186 
	C253.946686,79.154175 253.439484,82.769585 253.707382,87.038948 
	C244.877274,88.317291 235.977234,89.580879 227.085861,90.902908 
	C222.241974,91.623123 217.252533,91.937454 212.636017,93.402901 
	C209.776718,94.310539 206.716003,96.545609 205.135849,99.058853 
	C202.793732,102.783997 201.915390,107.396980 199.957733,111.409431 
	C198.912033,113.552719 196.909744,115.229286 194.948898,117.253754 
z"/>
<path fill="#99B8BE" opacity="1.000000" stroke="none" 
	d="
M82.966370,224.754150 
	C87.002701,223.504242 87.200394,225.892258 86.842857,228.455643 
	C86.464935,231.165207 85.785240,233.832672 86.122665,236.988419 
	C87.704025,235.212021 89.157005,233.290176 90.927101,231.727585 
	C91.682518,231.060699 93.099930,231.143707 94.216522,230.885956 
	C94.231224,231.930161 94.688652,233.316086 94.189056,233.963303 
	C90.851723,238.286896 87.370956,242.505981 83.776970,246.619400 
	C83.158401,247.327377 81.322289,247.956573 80.846382,247.589066 
	C79.985207,246.924057 79.231377,245.444809 79.309227,244.368942 
	C79.520767,241.445312 80.190788,238.554855 80.679070,235.651260 
	C80.268074,235.318680 79.857079,234.986115 79.446083,234.653549 
	C78.566025,235.968781 77.929558,237.597382 76.743690,238.519226 
	C75.292709,239.647110 73.381348,240.182770 71.669067,240.974518 
	C72.263885,239.118317 72.422897,236.928177 73.539085,235.471466 
	C76.353821,231.798035 79.599785,228.455017 82.966370,224.754150 
z"/>
<path fill="#98B8BE" opacity="1.000000" stroke="none" 
	d="
M182.638550,238.009216 
	C183.936066,238.369949 185.590195,238.784561 185.912415,239.679001 
	C187.658600,244.526199 189.206970,249.457825 190.502701,254.443741 
	C190.785568,255.532196 190.058594,257.260071 189.210144,258.103119 
	C188.798935,258.511719 186.791748,257.853058 185.924255,257.157410 
	C183.755615,255.418381 181.825409,253.382019 179.102631,250.805496 
	C179.499680,254.152100 179.933456,256.512726 179.986145,258.881805 
	C180.007614,259.847198 179.202148,260.830963 178.772919,261.806366 
	C177.872787,261.027283 176.453156,260.406311 176.159851,259.442535 
	C174.662033,254.521042 173.318634,249.540100 172.247330,244.510498 
	C171.996002,243.330612 173.008942,241.881439 173.440247,240.556152 
	C174.709274,241.055191 176.269180,241.246414 177.188690,242.115341 
	C179.310745,244.120590 181.122086,246.454620 183.816071,249.514694 
	C183.228470,244.918289 182.804443,241.601440 182.638550,238.009216 
z"/>
<path fill="#98B7BD" opacity="1.000000" stroke="none" 
	d="
M130.590240,244.034317 
	C136.745529,246.803116 138.394577,252.155289 135.487915,258.648132 
	C133.213943,263.727692 127.011986,266.628784 122.261925,264.427551 
	C120.651459,263.681274 119.018967,261.919891 118.410759,260.252441 
	C115.338135,251.828598 121.183319,243.926926 130.590240,244.034317 
M128.267838,248.219818 
	C123.256134,249.378372 120.335968,255.179214 123.191513,258.947968 
	C124.018852,260.039917 126.796982,260.814514 127.993759,260.257751 
	C132.355453,258.228577 132.718338,251.775879 128.267838,248.219818 
z"/>
<path fill="#98B8BE" opacity="1.000000" stroke="none" 
	d="
M243.207916,166.143219 
	C241.788940,164.522980 239.740021,162.879272 239.915146,161.522659 
	C240.481155,157.138000 242.314819,152.716263 247.333847,152.314606 
	C249.449539,152.145294 252.888718,154.287903 253.789322,156.262863 
	C255.424957,159.849670 255.721680,163.976883 260.760986,164.654480 
	C261.063843,164.695206 261.547943,166.516434 261.342529,166.663422 
	C260.482635,167.278702 259.355682,167.993835 258.391754,167.911224 
	C253.448807,167.487579 248.526062,166.828201 243.207916,166.143219 
M247.980698,162.455582 
	C248.993103,161.868484 250.897110,161.183762 250.845566,160.713165 
	C250.707886,159.455872 249.974838,157.633072 249.016724,157.276917 
	C248.091934,156.933151 246.590744,158.139969 245.342758,158.665604 
	C245.973602,159.844620 246.604446,161.023651 247.980698,162.455582 
z"/>
<path fill="#98B7BE" opacity="1.000000" stroke="none" 
	d="
M254.921326,182.851013 
	C249.674896,182.874283 250.696640,184.967865 252.638824,187.731415 
	C253.497589,188.953384 253.742401,190.606857 254.265930,192.064438 
	C252.835602,191.686798 251.135681,191.678268 250.023056,190.865646 
	C245.890335,187.847214 241.845978,184.683182 238.009430,181.300461 
	C236.995026,180.406067 236.844818,178.531509 236.297775,177.107025 
	C237.655609,176.854935 239.057999,176.248978 240.363373,176.413361 
	C245.426361,177.050949 250.473022,177.855911 255.488922,178.795334 
	C256.412811,178.968384 257.165527,180.055557 257.997253,180.720795 
	C257.109283,181.436005 256.221313,182.151199 254.921326,182.851013 
z"/>
<path fill="#98B7BD" opacity="1.000000" stroke="none" 
	d="
M28.233879,162.243439 
	C30.116051,160.455612 31.978476,159.047241 33.840904,157.638870 
	C32.001682,156.252731 30.100590,154.938110 28.362774,153.434769 
	C27.872311,153.010452 27.451820,151.698441 27.713284,151.380142 
	C28.253475,150.722580 29.415310,149.936798 30.074606,150.115311 
	C36.281593,151.796097 42.462425,153.592224 48.554066,155.642502 
	C49.008995,155.795609 48.995735,159.276123 48.733036,159.341827 
	C42.223148,160.969635 35.652565,162.356735 29.077417,163.712143 
	C28.873188,163.754257 28.505577,163.003830 28.233879,162.243439 
z"/>
<path fill="#98B7BD" opacity="1.000000" stroke="none" 
	d="
M222.294556,228.704041 
	C223.514877,229.589645 224.609589,230.163254 225.274384,231.056732 
	C225.864716,231.850098 225.977936,232.998474 226.301743,233.990143 
	C225.142868,234.087509 223.966431,234.355453 222.829636,234.238358 
	C221.460251,234.097321 220.124573,233.629181 218.774292,233.302643 
	C218.636353,234.836319 218.582230,236.383667 218.334930,237.899506 
	C218.122345,239.202591 217.689209,240.469681 217.353577,241.752686 
	C216.307968,240.950897 214.761627,240.366898 214.302048,239.310226 
	C212.126480,234.308228 210.125504,229.219086 208.354767,224.060608 
	C207.945114,222.867233 208.683823,221.279648 208.894119,219.873459 
	C210.153824,220.302185 211.607758,220.463074 212.637161,221.209442 
	C215.838608,223.530701 218.879059,226.074005 222.294556,228.704041 
z"/>
<path fill="#99B8BE" opacity="1.000000" stroke="none" 
	d="
M99.424805,252.287354 
	C97.947472,253.833282 96.684227,255.065674 95.420990,256.298065 
	C94.944878,255.991776 94.468765,255.685471 93.992661,255.379166 
	C94.415596,253.766663 94.638939,252.066086 95.303398,250.560150 
	C96.646889,247.515335 98.235817,244.579117 99.712662,241.592743 
	C102.888702,235.170334 102.899559,235.140182 109.298683,238.180649 
	C111.004066,238.990952 112.597801,240.036255 114.242798,240.973663 
	C114.077019,241.611542 113.911247,242.249405 113.745468,242.887283 
	C111.795708,242.556885 109.848267,241.995453 107.895370,241.975769 
	C106.550850,241.962204 104.551193,242.317139 104.026703,243.205475 
	C103.468590,244.150742 104.105972,245.991608 104.588089,247.307007 
	C105.053474,248.576736 105.986443,249.675110 106.713997,250.848755 
	C105.246567,250.955765 103.769104,250.991409 102.315369,251.195801 
	C101.404755,251.323853 100.529831,251.705795 99.424805,252.287354 
z"/>
<path fill="#99B8BE" opacity="1.000000" stroke="none" 
	d="
M246.704544,201.235474 
	C247.344284,202.698425 247.711777,203.929916 248.079254,205.161407 
	C246.851974,205.150665 245.609848,205.248398 244.403671,205.083389 
	C243.801712,205.001053 243.268692,204.432938 242.699005,204.093765 
	C238.426727,201.550186 234.302841,197.488373 229.473816,203.214523 
	C227.472504,199.062119 231.350342,191.137634 236.139496,189.108643 
	C236.394882,189.656250 237.010406,190.349899 236.857071,190.745712 
	C235.553268,194.111221 236.896042,195.889771 240.022293,197.196564 
	C242.292755,198.145645 244.304947,199.712570 246.704544,201.235474 
z"/>
<path fill="#9EBABF" opacity="1.000000" stroke="none" 
	d="
M38.177692,197.874847 
	C40.018967,196.094666 41.760590,194.343246 43.860016,193.342255 
	C46.841511,191.920700 50.028336,190.805130 53.242695,190.048523 
	C54.881927,189.662689 56.772560,190.344925 58.549557,190.544388 
	C57.322311,191.704285 56.280758,193.250320 54.830986,193.947495 
	C51.299194,195.645920 47.578114,196.950760 44.196442,198.308426 
	C44.149765,199.277542 44.095329,199.606537 44.124802,199.927826 
	C44.296604,201.800766 44.488098,203.671921 44.672935,205.543671 
	C43.113777,204.302887 41.404629,203.203918 40.049324,201.770386 
	C39.176628,200.847336 38.823692,199.432877 38.177692,197.874847 
z"/>
<path fill="#9EBABF" opacity="1.000000" stroke="none" 
	d="
M49.525631,171.486389 
	C50.762833,172.420059 51.637871,173.264984 52.512909,174.109894 
	C51.316654,174.741898 50.185089,175.682220 48.912266,175.949249 
	C44.756126,176.821213 40.548492,177.447723 36.340946,178.172012 
	C36.521076,180.964172 36.668324,183.246643 36.860516,186.225723 
	C31.702665,184.414673 31.412527,180.491989 31.289335,177.192505 
	C31.246422,176.043167 34.193394,174.166916 36.050297,173.685928 
	C40.331680,172.576981 44.781799,172.119461 49.525631,171.486389 
z"/>
<path fill="#9EBABF" opacity="1.000000" stroke="none" 
	d="
M166.058746,262.515808 
	C164.790146,266.333252 162.851715,265.455078 162.328430,262.958038 
	C161.181259,257.484009 160.658539,251.867828 160.127228,246.286255 
	C160.030838,245.273727 161.107925,244.149506 161.643280,243.076859 
	C162.563065,243.993149 164.140778,244.812500 164.292435,245.841934 
	C165.085403,251.224808 165.516479,256.661011 166.058746,262.515808 
z"/>
<path fill="#9EBABF" opacity="1.000000" stroke="none" 
	d="
M64.573212,229.836395 
	C63.003231,230.389206 61.711777,230.693832 60.420322,230.998444 
	C60.187767,230.579041 59.955212,230.159653 59.722656,229.740250 
	C63.740677,224.006241 68.727982,219.187347 74.747215,215.449402 
	C75.298836,215.106842 76.673042,216.088898 77.665268,216.455856 
	C77.253517,217.416321 77.088547,218.641983 76.388893,219.293030 
	C72.616371,222.803421 68.711174,226.171219 64.573212,229.836395 
z"/>
<path fill="#89B1BD" opacity="1.000000" stroke="none" 
	d="
M626.434814,189.905502 
	C625.970215,171.583755 625.970215,153.177246 625.970215,133.846725 
	C618.622375,133.846725 611.396667,133.846725 603.729614,133.860245 
	C603.162842,124.587067 602.929932,115.298859 603.059326,106.015717 
	C603.074158,104.950989 605.106262,103.006905 606.214478,102.998596 
	C629.461914,102.824265 652.710938,102.893600 675.959534,102.842735 
	C678.811523,102.836502 679.141418,104.411636 679.129578,106.672119 
	C679.085144,115.140991 679.123230,123.610283 679.153809,132.549316 
	C673.867065,133.072739 668.548401,133.331619 663.249512,133.113052 
	C659.203613,132.946167 657.714478,134.259720 657.774353,138.486099 
	C657.990479,153.755386 657.708557,169.032043 657.956665,184.300354 
	C658.028442,188.716415 656.670471,190.084076 652.294556,189.922379 
	C643.839783,189.609955 635.365540,189.824600 626.434814,189.905502 
z"/>
<path fill="#88B1BC" opacity="1.000000" stroke="none" 
	d="
M470.661407,132.086090 
	C471.147247,132.326035 471.278900,132.671417 471.713684,132.999954 
	C472.149200,133.325485 472.281586,133.667847 472.715576,133.996429 
	C473.150909,134.323532 473.284637,134.664444 473.717834,134.994019 
	C474.150970,135.323044 474.284668,135.663422 474.717590,135.993469 
	C475.150879,136.323151 475.284943,136.663193 475.717834,136.993256 
	C476.150909,137.323120 476.285187,137.662949 476.718018,137.993057 
	C477.151123,138.322754 477.285645,138.662170 477.718353,138.992432 
	C478.152527,139.321747 478.288544,139.660202 478.722107,139.991791 
	C479.123596,140.562866 479.227478,141.140823 479.718872,142.087784 
	C480.434784,142.313263 480.763184,142.169754 481.091553,142.026245 
	C481.134674,129.438171 481.177765,116.850105 481.185883,103.833054 
	C491.121826,103.215126 501.092743,103.026199 511.531097,102.803848 
	C512.291443,104.384331 512.837952,105.997993 512.839417,107.612167 
	C512.864807,134.682022 512.822205,161.751953 512.728760,189.258301 
	C487.815735,189.754959 462.968719,189.815201 437.673401,189.866943 
	C437.131836,173.212494 437.011810,156.566620 436.953979,139.920547 
	C436.910065,127.276108 436.945251,114.631393 436.945251,100.991486 
	C438.625702,102.384125 439.752441,103.184212 440.722504,104.142876 
	C449.013428,112.336205 457.246521,120.588356 465.575989,128.742081 
	C466.956116,130.093079 468.720459,131.051620 470.661407,132.086090 
z"/>
<path fill="#89B1BC" opacity="1.000000" stroke="none" 
	d="
M586.985596,148.457596 
	C586.486145,148.935059 586.036621,148.982727 585.259399,149.120804 
	C576.833435,149.226532 568.735352,149.241867 560.269287,149.435455 
	C559.135132,152.323029 558.368835,155.032349 557.252747,158.978271 
	C569.968933,158.978271 581.508911,158.978271 593.505737,159.078857 
	C593.919006,169.067017 593.875488,178.954559 593.759399,189.280075 
	C571.771667,189.773514 549.856567,189.829010 527.478210,189.956635 
	C527.046326,161.394882 527.077698,132.761002 527.089233,103.681122 
	C539.467773,103.109299 551.866028,102.930161 564.264832,102.874832 
	C573.859314,102.832008 583.454468,102.944153 593.505737,103.090996 
	C593.948853,112.812035 593.935486,122.429474 593.933228,132.513428 
	C591.205811,133.265396 588.470276,133.758698 585.728271,133.797043 
	C577.769592,133.908417 569.803894,133.996307 561.850281,133.768021 
	C558.094849,133.660248 558.008118,135.677734 557.978821,138.441086 
	C557.948669,141.274689 558.184875,143.152939 561.888123,143.045120 
	C569.985413,142.809402 578.094360,142.972183 586.736938,142.972183 
	C586.849915,144.885269 586.942749,146.456543 586.985596,148.457596 
z"/>
<path fill="#D9E9EC" opacity="1.000000" stroke="none" 
	d="
M480.777313,142.031815 
	C480.763184,142.169754 480.434784,142.313263 479.971619,142.274689 
	C480.045624,142.074188 480.254364,142.055786 480.777313,142.031815 
z"/>
<path fill="#F2F5EA" opacity="1.000000" stroke="none" 
	d="
M127.401848,110.409416 
	C122.951347,113.526833 118.957703,116.869324 114.408234,119.054756 
	C106.919418,122.652184 99.125931,125.646515 91.344414,128.586853 
	C88.557663,129.639862 85.433495,129.799942 82.463326,130.367554 
	C82.069534,129.858521 81.675743,129.349503 81.281944,128.840469 
	C83.672127,124.595779 85.440186,119.801605 88.593727,116.231148 
	C93.727020,110.419212 99.547058,105.145004 105.512169,100.164757 
	C108.637848,97.555153 112.559006,95.748650 116.357018,94.135254 
	C120.316833,92.453125 124.126671,92.973732 126.756287,96.983795 
	C126.936943,97.259300 127.198189,97.481453 127.418144,97.731766 
	C132.860916,103.925613 132.860825,103.925690 127.401848,110.409416 
z"/>
<path fill="#EBF2EA" opacity="1.000000" stroke="none" 
	d="
M128.619415,248.356659 
	C132.718338,251.775879 132.355453,258.228577 127.993759,260.257751 
	C126.796982,260.814514 124.018852,260.039917 123.191513,258.947968 
	C120.335968,255.179214 123.256134,249.378372 128.619415,248.356659 
z"/>
<path fill="#DEEBEE" opacity="1.000000" stroke="none" 
	d="
M247.608002,162.329132 
	C246.604446,161.023651 245.973602,159.844620 245.342758,158.665619 
	C246.590744,158.139969 248.091934,156.933151 249.016724,157.276917 
	C249.974838,157.633072 250.707886,159.455872 250.845566,160.713165 
	C250.897110,161.183762 248.993103,161.868484 247.608002,162.329132 
z"/>
</svg>